<svg width="830" height="536" viewBox="0 0 830 536" fill="none" xmlns="http://www.w3.org/2000/svg">
<g clip-path="url(#clip0_990_5959)">
<path d="M107.778 -24.6299C103.887 -26.5268 103.755 -17.7495 99.4498 -17.3157C94.7413 -16.8413 94.2577 -26.7241 89.7295 -23.8887C85.7776 -21.4141 93.4922 -16.2677 91.1218 -12.2689C88.714 -8.20696 79.5722 -12.9646 79.7257 -8.24613C79.932 -1.89907 90.7747 -10.4487 93.8247 -5.75931C96.354 -1.87058 87.877 3.82469 92.9481 6.08966C97.3481 8.0549 95.4468 -3.5371 100.253 -3.85763C103.577 -4.07929 105.375 2.47417 107.778 0.165176C110.397 -2.35204 104.193 -4.56104 105.294 -7.51471C106.724 -11.3512 115.375 -6.27449 115.375 -10.3672C115.375 -14.46 107.574 -9.81968 105.294 -13.2198C102.755 -17.0068 111.876 -22.6318 107.778 -24.6299Z" stroke="white" stroke-width="1.34534"/>
<path d="M179.147 -17.4183C178.073 -21.3714 174.744 -25.2846 168.398 -24.1665C162.051 -23.0485 159.656 -16.075 161.982 -10.336C159.031 -9.60051 156.595 -6.60372 157.074 -3.30175C157.601 0.328753 160.005 2.3937 163.532 2.34646C165.293 2.32288 166.953 1.61531 168.131 0.423274C170.229 3.93381 173.868 5.83629 178.555 5.7737C185.232 5.68453 191.648 0.10578 191.007 -7.31589C190.434 -13.9412 185.609 -18.0572 179.147 -17.4183ZM179.147 -17.4183C179.411 -16.3135 179.623 -14.8228 179.345 -12.2273" stroke="white" stroke-width="1.34534"/>
<path d="M203.829 -8.11643C204.633 -2.60342 208.303 0.532251 213.687 0.460527C217.318 0.412165 220.665 -1.53042 222.302 -4.621C222.077 -4.60328 221.851 -4.59281 221.623 -4.58978C216.239 -4.51806 212.57 -7.65373 211.765 -13.1667C211.456 -15.2834 211.94 -17.3176 212.942 -19.0457C212.856 -19.0405 212.77 -19.0342 212.684 -19.0267C207.599 -18.5822 203.024 -13.6294 203.829 -8.11643Z" stroke="white" stroke-width="1.34534"/>
<path d="M242.122 -20.4094C242.845 -21.3787 243.997 -22.0056 245.295 -22.0056C247.485 -22.0056 249.261 -20.2186 249.261 -18.0142C249.261 -15.8098 247.674 -14.0228 243.708 -14.0228C239.742 -14.0228 234.983 -15.6193 234.983 -15.6193M256.498 -18.8519C258.615 -19.1968 260.88 -17.2762 260.88 -15.0083C260.88 -12.7404 260.142 -9.29219 250.886 -9.29218L241.383 -9.29219M250.084 1.82507C250.809 2.79432 251.963 3.42125 253.263 3.42125C255.458 3.42125 257.237 1.63423 257.237 -0.570175C257.237 -2.77458 255.647 -4.5616 251.673 -4.5616C247.699 -4.5616 234.983 -2.96503 234.983 -2.96503" stroke="white" stroke-width="1.34534"/>
<path d="M289.672 -14.9929L290.448 -12.024M281.79 -12.5318L283.149 -9.44572M297.325 -9.92341C297.953 -2.66272 292.173 2.49146 285.637 2.57869C279.102 2.66592 274.648 -1.14758 273.671 -7.85233C272.695 -14.5571 278.247 -20.5805 284.42 -21.121C290.593 -21.6615 296.697 -17.1841 297.325 -9.92341ZM286.201 -3.7806C285.444 -5.55664 286.3 -7.29435 287.756 -7.81693C289.211 -8.33951 290.532 -7.72263 291.32 -6.11295C292.108 -4.50328 291.377 -2.56464 290.041 -1.95594C288.705 -1.34724 286.959 -2.00456 286.201 -3.7806Z" stroke="white" stroke-width="1.34534"/>
<path d="M314.752 -8.61928C315.722 -7.6842 318.279 -6.36975 320.751 -8.59261M330.67 -9.45623C329.658 -8.6231 327.067 -7.35444 324.796 -8.94483M321.503 -1.31911C322.674 -2.15248 325.954 -3.97549 329.702 -4.60052M333.953 -9.92219C334.585 -2.6615 328.772 2.49269 322.2 2.57991C315.627 2.66714 311.148 -1.14636 310.166 -7.8511C309.184 -14.5559 314.768 -20.5793 320.976 -21.1198C327.184 -21.6603 333.322 -17.1829 333.953 -9.92219Z" stroke="white" stroke-width="1.34534"/>
<path d="M346.68 -12.2675L353.622 0.225725L369.923 -4.33574L371.434 -17.0457C371.434 -17.0457 367.663 -11.5992 364.389 -12.2266C361.253 -12.8274 359.549 -18.8108 359.549 -18.8108C359.549 -18.8108 358.759 -11.5428 355.249 -10.088C352.059 -8.76625 346.68 -12.2675 346.68 -12.2675Z" stroke="white" stroke-width="1.34534"/>
<path d="M396.377 -9.64383C396.942 -7.74393 399.118 -7.19228 401.407 -8.10912C403.695 -9.02597 405.613 -12.9386 401.873 -15.9391C398.132 -18.9396 389.397 -15.9827 390.276 -8.97896C391.154 -1.97519 398.255 -0.489758 403.894 -2.74912C409.533 -5.00848 410.581 -11.9224 408.94 -16.0417C404.196 -27.9457 386.965 -22.2456 384.595 -12.5165C382.225 -2.7874 389.063 3.3119 394.399 4.16137" stroke="white" stroke-width="1.34534"/>
<path d="M435.839 -27.1102L445.796 -21.0673L451.003 -27.1102L453.339 -21.0673L472.12 -28.9341L461.147 -13.4828L473.179 -7.35173L457.028 -6.36079L455.86 2.64194L448.544 -1.36612L431.7 10.3498L435.839 -7.35173L422.325 -14.2844L437.479 -15.826L435.839 -27.1102Z" stroke="white" stroke-width="1.34534"/>
<path d="M507.037 -28.8333L494.221 -16.997L507.037 -23.734L494.741 -12.3816L515.023 -24.6273L485.863 -0.39642L521.784 -22.729L494.221 -1.0664L515.023 -11.4883L498.121 2.99069L513.797 -5.97957L503.693 10.2488" stroke="white" stroke-width="1.34534"/>
<path d="M549.704 -7.94184C547.701 1.38094 543.567 4.81126 539.538 4.06179C535.509 3.31231 533.27 -2.0754 535.113 -10.6559C536.957 -19.2364 541.25 -23.409 545.279 -22.6595C549.308 -21.9101 551.707 -17.2646 549.704 -7.94184Z" stroke="white" stroke-width="1.34534"/>
<path d="M598.53 -12.4377C586.254 11.6807 564.865 5.41299 563.248 -5.56049C561.731 -15.847 572.65 -21.3652 579.317 -20.6749C585.66 -20.0182 585.91 -13.4283 580.142 -13.4283C573.121 -13.4283 569.206 -18.6289 568.498 -22.7454M598.53 -12.4377L589.624 -9.54337M598.53 -12.4377L601.414 -3.49905" stroke="white" stroke-width="1.34534"/>
<path d="M633.452 4.16235L614.097 -9.11573M633.452 4.16235L637.524 -13.7236M633.452 4.16235L645.184 -15.7767M633.452 4.16235L622.728 -10.9339M614.097 -9.11573L616.424 -18.0992M614.097 -9.11573L622.728 -10.9339M637.524 -13.7236L622.728 -10.9339M637.524 -13.7236L628.112 -22.7444M637.524 -13.7236L639.537 -22.7444M637.524 -13.7236L645.184 -15.7767M616.424 -18.0992L622.728 -10.9339M616.424 -18.0992L628.112 -22.7444M622.728 -10.9339L628.112 -22.7444M628.112 -22.7444H639.537M639.537 -22.7444L645.184 -15.7767" stroke="white" stroke-width="1.34534"/>
<path d="M677.315 5.05287C677.315 5.05287 657.865 10.5945 657.865 -1.54744C657.865 -13.6893 678.987 -22.0537 678.987 -22.0537M678.987 -22.0537L669.391 -24.897M678.987 -22.0537L676.149 -12.4413" stroke="white" stroke-width="1.34534"/>
<path d="M726.637 -18.4743C718.281 -14.7534 712.467 -17.9023 712.558 -27.2512C710.733 -17.5503 704.201 -15.0281 695.786 -19.9046C702.971 -13.2785 700.437 -6.80637 691.666 -3.58595C701.063 -5.11484 706.498 -0.912786 706.816 8.66927C711.039 -1.3494 718.381 -4.10016 728.259 0.34742C719.519 -4.95708 717.702 -12.4601 726.637 -18.4743Z" stroke="white" stroke-width="1.34534"/>
<path d="M751.897 -20.0691V-16.4M754.346 -16.0637L756.213 -20.5583M757.682 -14.0763L765.029 -19.7022M759.121 -10.9881H765.029M759.121 -8.26686L762.427 -7.01325M757.682 -5.42331L763.927 -0.622906M747.306 -14.6572L742.409 -20.0691M745.714 -13.0978L742.011 -14.6572M745.102 -8.78665H742.011M745.714 -6.40174L740.939 -4.53661M748.347 -3.83337L745.714 1.97604M750.673 -3.19127L750.091 0.294369M754.346 -3.83337L756.213 1.97604" stroke="white" stroke-width="1.34534"/>
<path d="M777.701 -5.02738C780.819 -7.01646 780.474 -11.6024 778.03 -13.7898M780.336 -1.05875C785.352 -3.52778 787.331 -12.4788 781.833 -17.4003M781.768 4.16235C791.826 0.472767 795.637 -14.2792 786.18 -22.7444" stroke="white" stroke-width="1.34534"/>
<path d="M810.695 -8.46992C811.393 -9.61899 813.819 -11.0409 815.791 -9.63712M824.283 -11.5473C823.073 -12.3653 820.691 -12.0537 819.792 -10.3311M812.804 -4.44865C815.029 1.07374 824.791 -1.57511 824.036 -7.41947C824.036 -7.41947 821.901 -6.38383 818.856 -5.57831C815.81 -4.77279 812.804 -4.44865 812.804 -4.44865ZM828.192 -9.9201C828.823 -2.67998 823.011 2.4596 816.438 2.54659C809.866 2.63357 805.387 -1.16913 804.405 -7.85488C803.423 -14.5406 809.006 -20.547 815.214 -21.086C821.422 -21.625 827.56 -17.1602 828.192 -9.9201Z" stroke="white" stroke-width="1.34534"/>
<path d="M2.36316 51.9259L7.42577 34.3345L10.2176 42.2024L22.7625 34.2231C22.7625 34.2231 22.999 38.2684 24.7726 42.6106C26.5463 46.9528 29.463 50.627 29.463 50.627L13.7168 53.7816L16.7693 61.1299L2.36316 51.9259Z" stroke="white" stroke-width="1.34534"/>
<path d="M69.1497 39.4134C69.1497 39.4134 72.9377 27.526 67.8762 25.5987C62.2557 23.4584 63.4987 40.3689 63.4987 40.3689C63.4987 40.3689 51.2549 26.9864 48.6149 33.1629C46.1777 38.865 58.3252 46.0222 58.3252 46.0222C58.3252 46.0222 40.618 47.6557 42.2476 54.5817C43.9211 61.6946 60.8323 52.4717 60.8323 52.4717C60.8323 52.4717 54.8219 66.6683 60.8323 69.5908C67.5151 72.8403 69.1497 52.4717 69.1497 52.4717C69.1497 52.4717 83.2889 65.8705 87.1376 59.399C90.9247 53.0309 73.6865 46.0222 73.6865 46.0222C73.6865 46.0222 86.813 41.9646 85.1478 36.3479C83.339 30.2468 69.1497 39.4134 69.1497 39.4134Z" stroke="white" stroke-width="1.34534"/>
<path d="M119.757 22.4025C119.757 22.4025 102.601 20.9423 100.499 33.5447C99.9686 36.725 101.031 39.4005 102.934 41.4804M102.934 41.4804C108.572 47.6427 121.592 48.5777 122.447 41.9257C123.431 34.2752 108.421 32.7004 102.934 41.4804ZM102.934 41.4804C102.04 42.9113 101.398 44.6172 101.12 46.6166C100.375 51.9803 102.693 56.0383 105.937 58.6489M105.937 58.6489C111.321 62.9828 119.254 63.3279 119.945 59.0364C120.925 52.9598 109.541 52.2771 105.937 58.6489ZM105.937 58.6489C105.462 59.4877 105.122 60.4489 104.963 61.5361C103.597 70.8814 115.678 73.0028 115.678 73.0028" stroke="white" stroke-width="1.34534"/>
<path d="M135.172 46.3871L144.679 34.2229L139.388 61.1296" stroke="white" stroke-width="1.34534"/>
<path d="M158.763 46.2262C158.763 46.2262 164.404 30.7938 170.917 34.9263C178.811 39.9349 157.363 61.1299 157.363 61.1299H172.287" stroke="white" stroke-width="1.34534"/>
<path d="M211.977 42.5238L202.329 40.3784M210.635 46.9407C206.842 46.9407 192.638 46.9407 185.339 46.9407M211.977 51.3576L197.924 54.9753" stroke="white" stroke-width="1.34534"/>
<path d="M224.658 35.445C224.658 35.445 241.889 28.2648 248.448 34.8527C257.239 43.6838 231.65 61.9861 231.65 61.9861M231.65 61.9861L240.186 63.2826M231.65 61.9861L232.946 53.4462" stroke="white" stroke-width="1.34534"/>
<path d="M262.966 48.1439C271.606 47.1781 272.233 44.3594 273.347 37.5198C273.669 45.4718 275.764 46.7595 283.953 47.6932C275.7 48.1439 274.281 50.816 273.347 57.8344C272.267 51.0869 271.058 48.6912 262.966 48.1439Z" stroke="white" stroke-width="1.34534"/>
<path d="M300.874 48.3485C301.838 49.2836 304.381 50.598 306.839 48.3752M316.702 47.5115C315.696 48.3447 313.119 49.6133 310.861 48.0229M306.41 52.8829C306.723 56.5022 311.499 57.6524 311.903 52.4019M320.403 47.0456C321.031 54.3063 315.251 59.4605 308.715 59.5477C302.18 59.6349 297.726 55.8214 296.75 49.1167C295.773 42.4119 301.325 36.3885 307.498 35.848C313.671 35.3075 319.775 39.7849 320.403 47.0456Z" stroke="white" stroke-width="1.34534"/>
<path d="M348.196 38.9604C344.137 33.3794 336.926 36.9181 335.386 45.7035C334.026 53.4623 338.203 62.1091 346.736 58.0361M333.128 45.419H344.467M333.128 50.1136H342.387" stroke="white" stroke-width="1.34534"/>
<path d="M367.556 29.9167C368.595 28.7043 372.01 27.2567 373.206 28.7157C375.261 31.2207 368.173 41.1379 365.57 38.3926C362.552 35.2097 376.391 30.2256 379.953 34.4464C383.919 39.1476 370.056 54.0404 365.57 49.202C360.384 43.6086 381.562 36.2651 386.219 44.5008C390.993 52.9424 374.097 63.7517 360.879 67.2518" stroke="white" stroke-width="1.34534"/>
<path d="M401.839 34.2234H415.517L403.09 44.7301C403.09 44.7301 411.7 40.8237 414.623 44.7301C420.523 52.6176 399.723 61.1301 399.723 61.1301" stroke="white" stroke-width="1.34534"/>
<path d="M430.571 53.1464C433.721 56.8461 440.004 58.5972 448.735 56.7833C460.363 54.3675 467.857 45.7589 464.768 38.6866C462.385 33.2291 453.153 33.3878 445.027 35.9107M430.571 53.1464C429.525 51.9186 428.825 50.4761 428.494 48.878C427.398 43.572 432.763 36.2795 445.027 35.9107M430.571 53.1464C429.017 48.1272 431.73 42.2197 438.311 38.6866C440.315 37.6105 442.623 36.6571 445.027 35.9107M430.571 53.1464C431.09 54.823 432.085 56.4005 433.57 57.7573C437.977 61.7809 448.398 62.6227 457.609 57.9776M445.027 35.9107C447.585 35.8338 450.444 36.0582 453.608 36.6649" stroke="white" stroke-width="1.34534"/>
<path d="M488.102 38.0941L489.97 47.5604M489.97 47.5604L490.858 57.0267M489.97 47.5604L478.152 49.006M489.97 47.5604L502.069 48.2133M489.97 47.5604L501.041 34.2236M489.97 47.5604L501.322 61.1304M489.97 47.5604L483.384 57.5863M489.97 47.5604L478.152 38.6537" stroke="white" stroke-width="1.34534"/>
<path d="M519.827 40.1431L520.993 47.5825M520.993 47.5825L527.125 44.146M520.993 47.5825L527.125 52.2275M520.993 47.5825L517.908 55.2108M520.993 47.5825H514.748" stroke="white" stroke-width="1.34534"/>
<path d="M560 61.1254C560 61.1254 571.037 41.8248 562.634 40.0014C558.743 39.157 558.395 43.9522 558.395 43.9522C558.395 43.9522 553.248 30.7153 545.129 35.1221C538.886 38.5104 547.226 47.3413 547.226 47.3413C539.71 46.6731 537.848 54.1552 541.889 57.6362C545.795 61 555.073 61.1687 560 61.1254ZM560 61.1254C558.846 56.2093 555.973 46.7575 550.825 41.8248" stroke="white" stroke-width="1.34534"/>
<path d="M587.268 71.7921C587.268 71.7921 571.849 52.1532 581.832 48.9444C584.857 47.9719 588.056 51.8578 588.056 51.8578C588.056 51.8578 582.486 31.8628 589.793 31.8628C593.476 31.8628 594.871 38.21 594.871 38.21C594.871 38.21 601.912 19.8528 608.891 24.2389C615.049 28.1085 605.812 41.996 605.812 41.996C605.812 41.996 609.691 40.7914 611.609 41.996C617.302 45.5712 600.28 55.6274 600.28 55.6274C600.28 55.6274 607.156 55.3608 608.891 58.4502C613.761 67.1175 587.268 71.7921 587.268 71.7921ZM587.268 71.7921C588.991 65.1493 594.589 48.1434 603.191 33.2622" stroke="white" stroke-width="1.34534"/>
<path d="M633.553 42.5091H641.975L626.452 61.1304L632.118 46.2932H625.458L637.4 34.2236L633.553 42.5091Z" stroke="white" stroke-width="1.34534"/>
<path d="M678.068 38.6852C683.614 38.1081 688.201 41.0624 688.85 44.4262C689.519 47.8983 687.146 52.085 681.002 54.0649C680.907 59.6569 678.865 63.821 675.274 64.5148C671.683 65.2085 668.159 62.7258 665.695 56.9934C659.712 57.5951 655.141 54.2899 654.7 50.2703C654.26 46.2508 656.899 43.2278 662.714 41.684C662.252 35.6178 664.422 31.6803 668.779 30.8384C673.136 29.9966 677.132 33.9994 678.068 38.6852Z" stroke="white" stroke-width="1.34534"/>
<path d="M677.973 46.6115C678.618 49.9567 676.891 53.1869 673.549 53.8327C670.207 54.4784 666.664 53.0686 665.87 48.9499C665.225 45.6048 666.886 42.8469 670.753 41.7238C674.201 40.7227 677.241 42.8159 677.973 46.6115Z" stroke="white" stroke-width="1.34534"/>
<path d="M717.23 41.8587C715.538 36.189 704.569 35.1345 704.569 41.0515C704.569 46.5673 717.23 45.8274 717.23 52.9863C717.23 60.1453 700.982 57.5981 701.665 48.4288M712.941 34.2239L707.649 61.1306" stroke="white" stroke-width="1.34534"/>
<path d="M759.513 39.3908C763.42 41.0211 767.22 43.6339 770.691 47.1869C760.686 61.0676 740.018 61.5996 729.928 48.471C733.303 43.7886 737.36 40.6261 741.738 38.9144M759.513 39.3908C761.481 42.6 761.769 46.8656 759.47 50.7205C756.14 56.3023 749.255 56.9963 744.464 53.6283C739.673 50.2604 738.428 45.1636 741.215 39.8009C741.375 39.4924 741.55 39.1969 741.738 38.9144M759.513 39.3908C753.574 36.9128 747.389 36.7045 741.738 38.9144M754.239 47.3316L752.173 44.6305L753.158 41.3257L750.393 43.9632L747.149 43.0861L749.059 45.3932L747.66 49.4925L751.092 46.6325L754.239 47.3316Z" stroke="white" stroke-width="1.34534"/>
<path d="M786.213 53.1773C789.119 60.4703 792.555 50.5712 792.555 50.5712C792.555 50.5712 795.966 61.5585 799.045 53.7595C806.709 50.6561 795.979 47.2295 795.979 47.2295C795.979 47.2295 805.33 43.9747 798.006 41.3803C794.983 35.1015 791.91 44.0919 791.91 44.0919C791.91 44.0919 788.789 34.3815 785.741 41.2629C778.795 44.1288 789.347 47.2471 789.347 47.2471C789.347 47.2471 779.666 50.7194 786.213 53.1773Z" stroke="white" stroke-width="1.34534"/>
<path d="M814.482 40.9986C814.862 37.812 816.912 34.2236 821.823 34.2236C826.734 34.2236 827.937 37.9746 827.577 40.9986C826.915 46.5536 820.14 47.284 819.466 52.9453M819.048 56.9768L818.608 61.1304" stroke="white" stroke-width="1.34534"/>
<path d="M28.8749 93.748L14.0226 113.796H31.1667M25.2436 120.655L28.1308 100.96" stroke="white" stroke-width="1.34534"/>
<path d="M61.4366 93.748L49.2929 93.748L47.2134 104.255C47.2134 104.255 56.214 100.09 58.7458 104.255C63.669 112.353 43.8461 120.655 43.8461 120.655" stroke="white" stroke-width="1.34534"/>
<path d="M79.8479 117.628L75.1714 99.8736M79.8479 117.628L86.2281 103.993M79.8479 117.628L80.8629 96.7749M79.8479 117.628L74.1201 111.54M79.8479 117.628L86.2281 113.909" stroke="white" stroke-width="1.34534"/>
<path d="M117.545 86.7928C108.401 87.6695 116.612 101.356 116.612 101.356C116.612 101.356 98.3606 88.2941 98.9205 106.948C99.4803 125.602 116.09 111.19 116.09 111.19C116.09 111.19 101.794 124.326 116.09 127.329C130.385 130.332 123.89 111.19 123.89 111.19C123.89 111.19 132.512 127.329 140.873 116.069C149.233 104.809 128.145 105.109 128.145 105.109C128.145 105.109 148.899 104.509 139.79 92.2727C130.682 80.0368 123.89 98.8786 123.89 98.8786C123.89 98.8786 126.69 85.9161 117.545 86.7928Z" stroke="white" stroke-width="1.34534"/>
<path d="M183.635 106.841C176.121 104.202 171.491 108.901 175.397 112.363M192.204 119.397C190.762 121.138 188.008 122.367 183.115 122.075C178.48 121.799 176.102 120.247 175.07 118.384M192.204 119.397C192.897 122.556 191.903 128.741 182.629 127.919C180.343 127.717 178.639 127.215 177.389 126.529M192.204 119.397C193.831 117.432 193.622 114.462 193.091 112.624M175.07 118.384C173.949 116.362 174.504 113.886 175.397 112.363M175.07 118.384C173.998 120.616 173.568 124.432 177.389 126.529M162.642 103.128C163.4 103.128 164.092 103.042 164.724 102.88M177.628 126.456C177.548 126.481 177.469 126.505 177.389 126.529M164.724 102.88C173.248 100.703 171.044 84.3184 179.262 85.0231C187.701 85.7468 180.293 101.681 180.293 101.681C185.161 100.969 194.251 102.065 194.519 108.144C194.603 110.047 194.056 111.52 193.091 112.624M164.724 102.88C164.724 102.88 163.858 100.018 161.46 99.8319C152.745 99.1572 154.594 127.63 160.686 129.18C165.196 130.327 166.471 126.562 166.471 126.562M166.471 126.562C165.128 126.067 164.006 125.36 163.097 124.457M166.471 126.562C169.373 127.631 173.529 127.68 177.389 126.529M193.091 112.624C189.209 117.064 179.529 116.025 175.397 112.363" stroke="white" stroke-width="1.34534"/>
<path d="M213.464 100.508L216.301 108.722M216.301 108.722L216.096 116.776M216.301 108.722L207.21 114.933M216.301 108.722L225.152 109.283M216.301 108.722L221.222 96.1003M216.301 108.722L228.467 115.293M216.301 108.722L211.482 117.337M216.301 108.722L207.655 101.069M216.301 108.722L224.605 102.792M216.301 108.722L208.816 108.041M216.301 108.722L221.222 118.298" stroke="white" stroke-width="1.34534"/>
<path d="M241.148 106.623L247.095 90.5845H262.019L257.917 99.4062H268.122L246.281 123.814L254.052 106.623H241.148Z" stroke="white" stroke-width="1.34534"/>
<path d="M288.886 101.284C291.796 96.9968 299.179 98.3572 297.867 105.032C296.555 111.707 287.393 115.574 287.393 115.574C287.393 115.574 281.095 109.851 280.811 104.211C280.527 98.5714 286.661 98.1158 288.886 101.284ZM288.886 101.284C288.318 102.058 287.854 103.069 287.393 104.533" stroke="white" stroke-width="1.34534"/>
<path d="M310.702 113.401L321.972 114.903M311.691 107.952L339.022 105.803M310.702 103.882L329.499 99.4992" stroke="white" stroke-width="1.34534"/>
<path d="M370.668 105.743C370.668 105.743 369.563 98.228 367.149 92.4811M375.754 104.557C375.329 99.5727 374.35 96.4064 373.172 94.4741M380.287 120.052C380.44 119.078 380.605 117.786 380.749 116.298M365.107 123.783C365.107 123.783 363.393 122.415 361.368 120.6M372.837 109.682C373.797 111.866 374.073 114.499 374.073 116.298M366.946 110.888C367.955 112.941 368.397 114.845 368.866 116.983M361.368 120.6C356.803 116.508 349.75 109.204 352.202 105.022C355.369 99.6212 363.063 107.142 363.063 107.142C363.063 107.142 352.769 88.264 360.128 86.185C363.15 85.3312 365.467 88.4768 367.149 92.4811M361.368 120.6C361.368 120.6 357.888 123.108 358.924 126.097C360.876 131.735 387.889 125.869 386.197 118.862C385.4 115.56 380.749 116.298 380.749 116.298M380.749 116.298C381.618 107.304 381.536 91.2058 373.172 94.4741M373.172 94.4741C371.148 91.1547 368.538 91.4765 367.149 92.4811" stroke="white" stroke-width="1.34534"/>
<path d="M409.883 93.9597C403.022 95.8916 409.555 105.222 409.555 105.222C409.555 105.222 397.448 103.347 399.113 110.612C400.778 117.877 410.977 111.423 410.977 111.423C410.977 111.423 408.879 122.188 416.362 120.467C423.844 118.746 417.329 108.939 417.329 108.939C417.329 108.939 427.668 110.14 426.226 103.846C424.783 97.5518 415.525 103.849 415.525 103.849C415.525 103.849 416.744 92.0279 409.883 93.9597Z" stroke="white" stroke-width="1.34534"/>
<path d="M439.043 100.457L440.57 112.235M441.244 117.424L440.894 114.727M445.016 96.9749V111.245M445.016 117.014V114.215M450.613 102.608L449.544 112.027M448.978 117.014L449.295 114.215" stroke="white" stroke-width="1.34534"/>
<path d="M468.493 105.185C470.235 104.148 472.256 103.869 474.015 104.57C477.42 105.926 478.719 109.933 477.113 114.816C475.675 119.189 471.748 121.635 468.342 120.279C457.156 115.824 466.307 92.8059 478.753 93.7761" stroke="white" stroke-width="1.34534"/>
<path d="M493.47 104.204C494.493 104.936 495.796 105.161 497.26 104.826C498.34 104.578 499.291 103.987 499.963 103.177L500.067 103.168C501.159 104.729 502.885 105.347 504.922 104.881C505.38 104.776 505.814 104.609 506.214 104.391M493.47 104.204C492.712 103.661 492.109 102.84 491.707 101.761C490.914 99.6278 491.969 97.294 493.736 96.1727M493.47 104.204L499.581 124.958H500.519L506.214 104.391M493.736 96.1727C493.671 96.0304 493.61 95.8829 493.554 95.7302C492.611 93.1955 494.278 90.3774 496.648 89.6471C499.017 88.9168 501.779 90.1508 502.632 92.9319C502.931 93.9087 502.9 94.8506 502.623 95.687M493.736 96.1727C494.069 95.9617 494.426 95.7935 494.802 95.6778M502.623 95.687C502.111 97.2316 500.76 98.416 499.106 98.7948M502.623 95.687C504.955 95.0582 507.614 96.2985 508.448 99.0176C509.148 101.3 508.041 103.391 506.214 104.391" stroke="white" stroke-width="1.34534"/>
<path d="M548.476 99.5228L546.382 85.8757L542.137 100.194L526.43 94.5981L537.12 105.675L521.336 115.401L539.551 111.927V128.523L547.617 111.927L565.06 118.643L551.568 105.675L563.13 96.2963L548.476 99.5228Z" stroke="white" stroke-width="1.34534"/>
<path d="M577.741 112.336C577.741 112.336 579.749 105.767 585.361 103.742C589.04 102.414 594.083 104.682 594.083 104.682C594.083 104.682 595.542 100.49 597.659 99.4119C603.704 96.3353 609.289 101.929 609.289 101.929M577.741 112.336C577.741 112.336 589.982 117.591 596.723 115.357C605.132 112.571 609.289 101.929 609.289 101.929M577.741 112.336C577.741 112.336 588.725 110.541 594.885 108.509C601.045 106.477 609.289 101.929 609.289 101.929" stroke="white" stroke-width="1.34534"/>
<path d="M623.464 118.768C619.004 112.279 624.683 98.5083 638.501 95.5959C638.614 114.607 633.244 119.265 623.464 118.768ZM623.464 118.768C623.771 116.222 625.698 109.664 630.95 103.794" stroke="white" stroke-width="1.34534"/>
<path d="M658.823 118.595L651.201 114.744M651.201 114.744L655.038 107.095M651.201 114.744C661.289 111.691 667.972 108.527 672.25 105.61M672.25 105.61C680.664 99.8741 679.78 95.0942 677.203 93.9877C674.515 92.8332 669.984 95.6781 672.25 105.61ZM672.25 105.61C673.134 109.485 675.053 114.438 678.52 120.653" stroke="white" stroke-width="1.34534"/>
<path d="M691.674 110.891L700.513 90.1819C700.513 90.1819 695.357 124.219 707.704 124.219C714.607 124.219 715.026 107.591 715.026 107.591M715.026 107.591L707.47 114.321M715.026 107.591L721.743 115.163" stroke="white" stroke-width="1.34534"/>
<path d="M748.837 120.654C757.666 111.986 763.861 97.3553 754.627 94.1349C745.393 90.9145 741.723 108.828 746.301 107.732C750.878 106.637 742.158 94.9759 736.905 98.7876C731.653 102.599 734.329 114.06 748.837 120.654Z" stroke="white" stroke-width="1.34534"/>
<path d="M778.892 115.306C778.892 115.306 787.93 112.707 790.289 106.883C792.648 101.058 786.073 98.039 781.107 101.823C777.652 97.6891 772.394 98.191 771.905 103.746C771.415 109.302 778.892 115.306 778.892 115.306Z" stroke="white" stroke-width="1.34534"/>
<path d="M815.876 118.333H804.547C807.283 106.569 805.429 95.8731 811.606 96.0701C814.054 96.1481 816.503 98.7939 815.876 103.819M803.464 107.755L812.299 107.696" stroke="white" stroke-width="1.34534"/>
<path d="M34.4811 152.161L0.444092 162.423L10.0071 165.345M34.4811 152.161L10.0071 165.345M34.4811 152.161L30.3219 172.964L18.5634 168.599M34.4811 152.161L16.4155 167.802M10.0071 165.345L12.186 175.772M16.4155 167.802L12.186 175.772M16.4155 167.802L18.5634 168.599M12.186 175.772L18.5634 168.599" stroke="white" stroke-width="1.34534"/>
<path d="M48.0562 150.513H61.7341C61.7341 150.513 51.0003 162.684 47.1608 177.42" stroke="white" stroke-width="1.34534"/>
<path d="M84.3347 161.187C81.7906 162.842 79.094 164.557 77.0612 166.711C73.0884 170.921 72.9096 177.097 81.2589 177.407C89.6082 177.718 92.481 172.123 90.0569 167.675C88.7231 165.227 86.4242 163.176 84.3347 161.187ZM84.3347 161.187C86.0593 160.065 87.7139 158.972 89.0442 157.788C92.783 154.46 91.5186 150.703 86.592 150.52C81.6655 150.336 78.6103 153.992 80.9757 157.488C81.8298 158.75 83.0422 159.957 84.3347 161.187Z" stroke="white" stroke-width="1.34534"/>
<path d="M124.253 149.767C124.253 149.767 108.069 160.156 113.51 164.951C117.149 168.158 125.893 164.837 125.893 164.837L103.897 180.144M124.253 149.767L115.143 147.789M124.253 149.767L122.288 158.939" stroke="white" stroke-width="1.34534"/>
<path d="M157.311 153.708L151.749 158.593L145.015 154.099L146.559 161.328L138.574 164.65L147.991 166.311L147.406 174.224L152.285 167.581L157.311 170.268L155.652 165.139L162.386 163.233L155.652 161.328L157.311 153.708Z" stroke="white" stroke-width="1.34534"/>
<path d="M209.994 153.531C209.994 153.531 206.007 146.97 201.759 145.92C193.174 143.797 191.536 166.161 191.536 166.161C191.536 166.161 187.102 158.571 182.471 158.499C174.254 158.373 175.091 182.969 175.091 182.969M209.994 153.531L211.458 144.963M209.994 153.531L201.442 152.064" stroke="white" stroke-width="1.34534"/>
<path d="M243.926 150.512C230.693 150.512 224.141 155.347 224.141 161.312C224.141 165.005 226.783 168.266 231.858 170.213L229.151 177.419L237.782 171.697C239.647 171.967 241.697 172.111 243.926 172.111C256.821 172.111 263.71 167.276 263.71 161.312C263.71 155.579 256.805 149.1 241.064 154.347" stroke="white" stroke-width="1.34534"/>
<path d="M282.233 159.216L288.13 162.448M301.299 174.455L297.41 169.928M289.678 181.321L292.152 171.071M303.829 157.161L298.369 161.526M286.399 146.612L291.311 159.571M313.454 160.447L299.482 163.92M296.774 179.688L294.811 171.07M276.39 165.646L287.46 165.488M296.776 150.577L294.866 159.277M284.599 172.143L288.735 169.018M308.459 170.998L299.234 167.542M298.369 161.526C298.886 162.204 299.274 163.009 299.482 163.92M298.369 161.526C297.49 160.373 296.237 159.588 294.866 159.277M299.482 163.92C299.549 164.216 299.597 164.522 299.625 164.839C299.711 165.826 299.562 166.737 299.234 167.542M299.234 167.542C298.481 169.388 296.784 170.679 294.811 171.07M294.811 171.07C294.428 171.146 294.035 171.187 293.636 171.193C293.115 171.2 292.619 171.159 292.152 171.071M292.152 171.071C290.718 170.803 289.552 170.1 288.735 169.018M288.735 169.018C288.109 168.19 287.687 167.139 287.504 165.892C287.484 165.757 287.469 165.622 287.46 165.488M287.46 165.488C287.383 164.402 287.64 163.361 288.13 162.448M288.13 162.448C288.821 161.16 289.975 160.125 291.311 159.571M291.311 159.571C291.854 159.345 292.428 159.199 293.012 159.149C293.639 159.094 294.264 159.14 294.866 159.277" stroke="white" stroke-width="1.34534"/>
<path d="M357.058 182.06C353.319 182.896 349.507 175.785 349.507 175.785C349.507 175.785 347.355 179.968 345.011 179.793C342.776 179.627 341.134 175.552 341.134 175.552C341.134 175.552 330.858 182.793 327.279 178.158C322.212 171.596 335.625 164.979 335.625 164.979C335.625 164.979 326.829 161.941 327.279 158.06C327.988 151.936 341.145 156.792 341.145 156.792C341.145 156.792 339.556 148.926 342.946 147.181C346.895 145.15 351.68 154.471 351.68 154.471C351.68 154.471 365.438 141.672 371.134 147.181C376.644 152.511 364.289 164.555 364.289 164.555C364.289 164.555 372.298 167.984 371.134 171.661C369.9 175.559 360.705 172.315 360.705 172.315C360.705 172.315 361.016 181.174 357.058 182.06Z" stroke="white" stroke-width="1.34534"/>
<path d="M397.942 167.409C397.942 171.173 395.096 174.224 391.585 174.224C388.075 174.224 385.229 171.173 385.229 167.409C385.229 162.279 391.585 153.708 391.585 153.708C391.585 153.708 397.942 162.176 397.942 167.409Z" stroke="white" stroke-width="1.34534"/>
<path d="M426.59 161.278L424.217 150.515L422.246 161.278L410.621 164.717L422.246 166.578L424.9 177.422L426.59 166.578L437.249 163.125L426.59 161.278Z" stroke="white" stroke-width="1.34534"/>
<path d="M477.979 150.515L456.945 155.018L462.313 158.972L449.933 168.856C449.933 168.856 453.147 169.817 455.849 171.931C458.551 174.044 460.377 177.422 460.377 177.422L469.872 164.792L474.145 170.503L477.979 150.515Z" stroke="white" stroke-width="1.34534"/>
<path d="M504.492 171.837C499.728 169.876 494.371 179.963 491.713 176.064C488.505 171.357 502.23 171.81 502.41 166.114C502.602 160.014 488.067 160.771 490.832 155.622C493.557 150.547 500.169 162.546 505.059 159.497C510.584 156.053 499.285 144.147 505.665 142.857C512.144 141.547 505.345 156.45 511.555 158.701C517.535 160.867 522.032 146.317 526.049 151.243C529.599 155.596 514.232 158.42 514.991 165.38C515.733 172.186 531.523 170.767 528.286 176.807C525.039 182.867 516.927 167.732 511.404 171.833C507.056 175.061 514.165 184.419 508.795 185.111C503.079 185.847 509.817 174.029 504.492 171.837Z" stroke="white" stroke-width="1.34534"/>
<path d="M552.376 163.806L552.951 156.514M552.376 163.806L559.422 160.16M552.376 163.806L560.034 168.572M552.376 163.806L552.663 171.388M552.376 163.806L545.724 167.525M552.376 163.806L546.084 159.871M552.951 156.514L557.085 152.903M552.951 156.514L548.96 152.903M559.422 160.16L560.106 155.719M559.422 160.16L563.917 161.351M560.034 168.572L564.348 166.442M560.034 168.572L560.681 172.651M552.663 171.388L555.827 175.034M552.663 171.388L548.96 174.601M545.724 167.525V172.11M545.724 167.525L541.41 166.55M546.084 159.871L545.724 155.936M546.084 159.871L541.41 161.351" stroke="white" stroke-width="1.34534"/>
<path d="M582.205 162.726L590.297 171.146C592.788 166.796 599.437 156.58 606.109 150.515M577.027 155.797L578.206 177.422L600.187 175.962L598.668 154.741L577.027 155.797Z" stroke="white" stroke-width="1.34534"/>
<path d="M634.363 177.422C624.741 177.422 619.934 173.412 618.864 166.548C618.464 163.081 619.793 159.864 622.06 157.432L620.37 150.515L627.899 153.674C628.919 153.331 629.979 153.106 631.052 153.019C633.266 152.837 635.482 153.121 637.485 153.845L644.283 150.515L642.737 157.432C644.117 159.08 645.039 161.17 645.271 163.674C645.892 170.387 640.307 175.503 631.052 174.395" stroke="white" stroke-width="1.34534"/>
<path d="M697.464 141.435C692.915 140.747 692.12 150.63 687.572 149.939C684.782 149.515 684.644 145.111 681.852 145.517C679.188 145.904 679.759 149.363 677.561 150.919C671.521 155.195 663.996 139.234 659.268 146.007C652.402 155.844 675.825 156.43 671.845 164.039C669.673 168.192 661.048 166.021 661.834 170.643C663.015 177.595 674.703 168.162 679.141 173.379C682.108 176.868 677.894 182.93 682.1 184.734C687 186.836 686.963 177.149 691.954 175.275C700.855 171.933 707.131 191.652 714.165 185.248C721.215 178.829 702.71 171.019 706.216 162.146C707.916 157.841 716.319 157.858 714.618 153.554C712.815 148.991 705.401 155.802 701.274 153.155C697.173 150.525 702.279 142.164 697.464 141.435Z" stroke="white" stroke-width="1.34534"/>
<path d="M728.46 176.493L731.637 153.463L735.428 184.953V142.979L741.53 178.554L743.011 156.681L747.668 172.119L750.268 160.152L756.695 168.323L761.353 160.152L767.744 164.526" stroke="white" stroke-width="1.34534"/>
<path d="M805.011 150.515C788.58 150.515 780.445 156.539 780.445 163.969C780.445 171.399 788.999 177.422 805.011 177.422C821.022 177.422 829.576 171.399 829.576 163.969C829.576 156.827 820.805 148.968 801.029 154.888" stroke="white" stroke-width="1.34534"/>
<path d="M13.4407 241.302C27.3405 242.612 33.9036 218.238 25.1402 214.877C21.3396 213.419 16.9469 215.779 15.3287 220.147C13.5221 225.024 14.6562 229.105 18.4568 230.563C19.9261 231.126 21.5612 231.14 23.1078 230.694" stroke="white" stroke-width="1.34534"/>
<path d="M54.2623 226.889C49.2681 229.311 45.9497 239.942 51.315 241.247C54.0693 241.917 55.3946 239.189 58.2139 238.952C61.0768 238.712 62.696 240.83 65.4839 240.111C71.9096 238.454 60.2629 223.98 54.2623 226.889Z" stroke="white" stroke-width="1.34534"/>
<path d="M49.2887 215.408C51.1091 214.847 52.4382 215.898 53.3192 217.555C54.5162 219.806 54.5958 223.125 52.7352 224.29C50.8747 225.456 48.6423 223.78 47.64 221.16C46.6377 218.539 47.4683 215.969 49.2887 215.408Z" stroke="white" stroke-width="1.34534"/>
<path d="M59.7171 223.793C57.8806 223.287 57.3227 221.685 57.4672 219.814C57.6635 217.271 59.3747 214.428 61.569 214.446C63.7633 214.463 64.7487 217.078 64.19 219.828C63.6313 222.578 61.5536 224.299 59.7171 223.793Z" stroke="white" stroke-width="1.34534"/>
<path d="M47.3432 230.174C46.5531 231.207 45.4 231.149 44.2573 230.577C42.7046 229.8 41.3519 227.988 41.9259 226.604C42.4999 225.22 44.4012 225.267 45.9914 226.326C47.5816 227.386 48.1334 229.142 47.3432 230.174Z" stroke="white" stroke-width="1.34534"/>
<path d="M70.556 222.892C71.5983 223.88 71.4031 225.143 70.6455 226.336C69.6162 227.958 67.4738 229.24 66.0209 228.45C64.568 227.66 64.837 225.572 66.1804 223.942C67.5239 222.311 69.5137 221.904 70.556 222.892Z" stroke="white" stroke-width="1.34534"/>
<path d="M90.4266 248.008C90.4266 248.008 79.2329 231.709 86.293 227.766C93.3532 223.822 93.2695 247.047 100.545 243.519C109.803 239.031 91.0212 224.164 99.2104 220.083C106.832 216.285 105.936 240.438 113.807 236.873C124.098 232.211 103.344 216.587 112.817 212.444C118.445 209.982 119.816 233.665 127.241 229.924C135.207 225.91 121.256 207.782 121.256 207.782" stroke="white" stroke-width="1.34534"/>
<path d="M144.865 219.521L154.89 226.173L144.865 236.27M142.378 223.982L146.613 227.034L142.378 231.065" stroke="white" stroke-width="1.34534"/>
<path d="M177.874 219.554L167.573 227.271L177.874 236.236M179.95 223.608L176.036 227.271L179.95 230.662" stroke="white" stroke-width="1.34534"/>
<path d="M198.337 229.558L194.127 230.48L192.63 224.438L208.394 220.27M198.337 229.558L200.873 245.485L213.198 243.378M198.337 229.558L210.027 226.998M221.717 224.438L225.139 223.689L223.596 216.289L208.394 220.27M221.717 224.438L225.524 241.27L213.198 243.378M221.717 224.438L210.027 226.998M208.394 220.27L210.027 226.998M208.394 220.27C207.505 215.306 203.716 209.686 200.395 212.73C196.572 216.234 203.155 221.655 208.394 220.27ZM208.394 220.27C207.488 215.212 209.918 208.798 213.726 210.622C218.124 212.73 213.375 218.953 208.394 220.27ZM210.027 226.998L213.198 243.378" stroke="white" stroke-width="1.34534"/>
<path d="M243.911 229.558L239.701 230.48L238.204 224.438L253.968 220.27M243.911 229.558L246.447 245.485L258.772 243.378M243.911 229.558L255.601 226.998M267.291 224.438L270.713 223.689L269.17 216.289L253.968 220.27M267.291 224.438L271.098 241.27L258.772 243.378M267.291 224.438L255.601 226.998M253.968 220.27L255.601 226.998M253.968 220.27C253.079 215.306 249.29 209.686 245.969 212.73C242.146 216.234 248.729 221.655 253.968 220.27ZM253.968 220.27C253.062 215.212 255.492 208.798 259.3 210.622C263.698 212.73 258.949 218.953 253.968 220.27ZM255.601 226.998L258.772 243.378" stroke="white" stroke-width="1.34534"/>
<path d="M284.631 228.301L306.253 208.287C308.245 208.287 310.351 209.02 312.261 210.202M284.631 228.301L284.204 237.902M284.631 228.301C287.344 228.093 290.416 228.856 293.295 230.275M303.433 241.046L318.688 218.422C318.369 216.959 317.624 215.485 316.597 214.131M303.433 241.046L293.605 244.275M303.433 241.046C302.808 238.891 301.495 236.825 299.771 235.006M284.204 237.902L283.776 247.503L293.605 244.275M284.204 237.902C284.204 237.902 287.04 238.408 289.417 240.019C291.794 241.631 293.605 244.275 293.605 244.275M299.771 235.006L316.597 214.131M299.771 235.006C297.959 233.096 295.694 231.458 293.295 230.275M316.597 214.131C315.44 212.605 313.925 211.233 312.261 210.202M293.295 230.275L312.261 210.202" stroke="white" stroke-width="1.34534"/>
<path d="M331.413 223.798C331.781 226.323 333.46 227.759 335.925 227.727C336.817 228.827 338.434 231.575 335.925 236.528C340.774 233.089 345.045 218.2 335.466 218.801C333.134 218.947 331.044 221.273 331.413 223.798Z" stroke="white" stroke-width="1.34534"/>
<path d="M343.74 223.133C343.73 225.685 345.179 227.355 347.621 227.69C348.341 228.911 348.977 232.485 345.764 237.01C351.068 234.33 358.049 219.626 348.487 218.795C346.159 218.592 343.749 220.581 343.74 223.133Z" stroke="white" stroke-width="1.34534"/>
<path d="M386.925 231.562C386.569 229.124 384.946 227.738 382.564 227.77C381.701 226.707 380.583 224.195 383.007 219.415C378.32 222.735 373.749 236.965 383.007 236.385C385.261 236.243 387.281 233.999 386.925 231.562Z" stroke="white" stroke-width="1.34534"/>
<path d="M375.065 232.809C375.074 230.346 373.674 228.733 371.314 228.411C370.618 227.232 370.073 223.148 373.178 218.781C368.052 221.367 361.235 236.194 370.477 236.996C372.727 237.191 375.057 235.272 375.065 232.809Z" stroke="white" stroke-width="1.34534"/>
<path d="M400.594 223.872L407.711 221.749M401.431 228.119L414.241 227.001M401.431 232.114L408.799 233.957M399.645 236.248L404.306 238.12M399.645 219.626L403.552 217.671" stroke="white" stroke-width="1.34534"/>
<path d="M451.303 225.065C449.674 222.926 446.193 222.276 443.98 224.175C443.786 224.341 443.605 224.513 443.44 224.689M451.303 225.065C452.933 227.203 452.72 230.469 450.224 232.368C447.727 234.267 444.51 233.333 442.961 230.957C441.549 228.791 441.719 226.513 443.44 224.689M451.303 225.065L460.622 222.245M437.946 224.963C436.869 223.819 435.314 223.219 433.749 223.355C432.144 223.494 430.635 224.479 429.774 225.867M437.946 224.963C438.714 225.778 439.24 226.87 439.353 228.17C439.626 231.292 437.116 233.508 434.278 233.545C431.44 233.583 429.506 231.943 429.082 229.06C428.912 227.904 429.198 226.795 429.774 225.867M437.946 224.963L443.44 224.689M429.774 225.867L426.921 225.474" stroke="white" stroke-width="1.34534"/>
<path d="M482.932 232.439L492.56 220.688H488.018M482.932 232.439V241.349M482.932 232.439L481.016 230.101M482.932 241.349H488.78M482.932 241.349H477.03M486.468 220.688H473.303L481.016 230.101M486.468 220.688L481.016 230.101M486.468 220.688H488.018M488.018 220.688L491.554 214.442" stroke="white" stroke-width="1.34534"/>
<path d="M529.101 211.465L526.611 198.537M533.562 208.038L535.17 201.548M533.562 240.49L536.985 257.261M529.101 245.63L528.011 252.64M543.832 220.069L553.74 214.892M516.444 220.069L505.24 213.023M511.568 222.68H506.278M518.934 235.609L509.338 243.657M544.921 233.035L552.546 236.911M530.567 220.069L538.589 213.023L536.196 224.016L545.907 226.764L536.196 229.512L538.589 236.911L531.341 233.035L524.305 242.619L525.149 231.203L511.568 228.807L523.084 224.016L520.857 213.587L530.567 220.069Z" stroke="white" stroke-width="1.34534"/>
<path d="M576.072 205.159L566.422 205.348M566.422 205.348L566.611 214.998M566.422 205.348L590.339 227.111L579.569 227.965L593.934 250.631" stroke="white" stroke-width="1.34534"/>
<path d="M620.45 235.767C615.687 233.806 610.329 243.892 607.671 239.994C604.463 235.286 618.189 235.74 618.368 230.044C618.561 223.943 604.025 224.701 606.79 219.552C609.516 214.477 616.127 226.475 621.018 223.427C626.542 219.983 615.243 208.077 621.623 206.787C628.102 205.476 621.304 220.38 627.514 222.63C633.493 224.797 637.99 210.247 642.007 215.173C645.558 219.526 630.19 222.349 630.949 229.309C631.691 236.116 647.481 234.696 644.244 240.737C640.997 246.797 632.886 231.662 627.363 235.762C623.015 238.99 630.124 248.349 624.754 249.04C619.037 249.776 625.776 237.959 620.45 235.767Z" stroke="white" stroke-width="1.34534"/>
<path d="M663.076 229.558L658.867 230.48L657.37 224.438L673.133 220.27M663.076 229.558L665.612 245.485L677.938 243.378M663.076 229.558L674.767 226.998M686.457 224.438L689.879 223.689L688.335 216.289L673.133 220.27M686.457 224.438L690.263 241.27L677.938 243.378M686.457 224.438L674.767 226.998M673.133 220.27L674.767 226.998M673.133 220.27C672.245 215.306 668.456 209.686 665.135 212.73C661.312 216.234 667.894 221.655 673.133 220.27ZM673.133 220.27C672.228 215.212 674.658 208.798 678.466 210.622C682.863 212.73 678.115 218.953 673.133 220.27ZM674.767 226.998L677.938 243.378" stroke="white" stroke-width="1.34534"/>
<path d="M702.943 227.485L731.598 224.633M702.943 231.158H724.145" stroke="white" stroke-width="1.34534"/>
<path d="M744.281 226.241C744.281 226.241 744.743 230.568 746.804 231.124C749.488 231.848 750.488 224.99 750.488 224.99C750.488 224.99 751.804 231.159 754.693 231.124C757.77 231.086 758.297 224.062 758.297 224.062C758.297 224.062 759.779 231.838 763.342 231.729C766.741 231.626 768.228 224.465 768.228 224.465" stroke="white" stroke-width="1.34534"/>
<path d="M808.959 212.558C805.069 210.661 804.936 219.439 800.631 219.872C795.923 220.347 795.439 210.464 790.911 213.299C786.959 215.774 794.674 220.92 792.303 224.919C789.895 228.981 780.754 224.223 780.907 228.942C781.113 235.289 791.956 226.739 795.006 231.429C797.535 235.317 789.058 241.013 794.13 243.278C798.53 245.243 796.628 233.651 801.435 233.33C804.759 233.109 806.556 239.662 808.959 237.353C811.579 234.836 805.375 232.627 806.475 229.673C807.905 225.837 816.557 230.914 816.557 226.821C816.557 222.728 808.755 227.368 806.475 223.968C803.936 220.181 813.057 214.556 808.959 212.558Z" stroke="white" stroke-width="1.34534"/>
<path d="M12.1313 302.05L5.72412 291.595M12.1313 302.05L22.0027 293.896M12.1313 302.05L13.8634 292.746M5.72412 291.595L10.8035 287.117M5.72412 291.595L13.8634 292.746M22.0027 293.896L13.8634 292.746M22.0027 293.896L18.683 288.018M10.8035 287.117L13.8634 292.746M10.8035 287.117L18.683 288.018M13.8634 292.746L18.683 288.018" stroke="white" stroke-width="1.34534"/>
<path d="M56.8131 286.458C55.7387 282.505 52.4103 278.592 46.0639 279.71C39.7176 280.828 37.3221 287.802 39.6479 293.54C36.6967 294.276 34.2614 297.273 34.7407 300.575C35.2677 304.205 37.6714 306.27 41.1986 306.223C42.9597 306.199 44.6191 305.492 45.7972 304.3C47.895 307.81 51.5342 309.713 56.2215 309.65C62.8983 309.561 69.3144 303.982 68.6728 296.561C68.1001 289.935 63.275 285.819 56.8131 286.458ZM56.8131 286.458C57.0775 287.563 57.289 289.054 57.0114 291.649" stroke="white" stroke-width="1.34534"/>
<path d="M81.4949 295.759C82.2993 301.272 85.9687 304.408 91.3531 304.336C94.9836 304.288 98.3312 302.345 99.9681 299.254C99.7432 299.272 99.5169 299.283 99.2894 299.286C93.905 299.357 90.2356 296.222 89.4312 290.709C89.1223 288.592 89.6063 286.558 90.6078 284.83C90.522 284.835 90.4362 284.841 90.3504 284.849C85.2646 285.293 80.6904 290.246 81.4949 295.759Z" stroke="white" stroke-width="1.34534"/>
<path d="M119.788 283.466C120.511 282.497 121.663 281.87 122.961 281.87C125.151 281.87 126.927 283.657 126.927 285.862C126.927 288.066 125.34 289.853 121.374 289.853C117.408 289.853 112.649 288.256 112.649 288.256M134.164 285.024C136.282 284.679 138.546 286.6 138.546 288.867C138.546 291.135 137.808 294.584 128.552 294.584L119.049 294.584M127.75 305.701C128.475 306.67 129.629 307.297 130.929 307.297C133.124 307.297 134.903 305.51 134.903 303.306C134.903 301.101 133.313 299.314 129.339 299.314C125.365 299.314 112.649 300.911 112.649 300.911" stroke="white" stroke-width="1.34534"/>
<path d="M167.338 288.883L168.114 291.852M159.456 291.344L160.815 294.43M174.991 293.953C175.619 301.213 169.839 306.367 163.303 306.455C156.768 306.542 152.314 302.728 151.337 296.024C150.361 289.319 155.913 283.295 162.086 282.755C168.259 282.214 174.363 286.692 174.991 293.953ZM163.868 300.095C163.11 298.319 163.966 296.582 165.422 296.059C166.878 295.536 168.198 296.153 168.986 297.763C169.774 299.373 169.043 301.311 167.707 301.92C166.371 302.529 164.625 301.871 163.868 300.095Z" stroke="white" stroke-width="1.34534"/>
<path d="M187.718 291.609L194.661 304.102L210.961 299.54L212.472 286.831C212.472 286.831 208.702 292.277 205.427 291.65C202.291 291.049 200.587 285.065 200.587 285.065C200.587 285.065 199.797 292.333 196.287 293.788C193.097 295.11 187.718 291.609 187.718 291.609Z" stroke="white" stroke-width="1.34534"/>
<path d="M237.415 294.232C237.98 296.132 240.157 296.684 242.445 295.767C244.734 294.85 246.652 290.938 242.912 287.937C239.171 284.937 230.436 287.893 231.314 294.897C232.193 301.901 239.294 303.386 244.933 301.127C250.572 298.868 251.62 291.954 249.978 287.835C245.235 275.93 228.004 281.631 225.634 291.36C223.264 301.089 230.101 307.188 235.438 308.038" stroke="white" stroke-width="1.34534"/>
<path d="M276.877 276.765L286.834 282.808L292.042 276.765L294.378 282.808L313.159 274.942L302.185 290.393L314.217 296.524L298.066 297.515L296.898 306.518L289.583 302.51L272.738 314.225L276.877 296.524L263.363 289.591L278.517 288.05L276.877 276.765Z" stroke="white" stroke-width="1.34534"/>
<path d="M348.075 275.043L335.259 286.879L348.075 280.142L335.78 291.494L356.061 279.249L326.902 303.48L362.822 281.147L335.259 302.81L356.061 292.388L339.16 306.867L354.836 297.896L344.732 314.125" stroke="white" stroke-width="1.34534"/>
<path d="M390.742 295.934C388.739 305.257 384.605 308.687 380.576 307.938C376.547 307.188 374.308 301.801 376.152 293.22C377.995 284.64 382.289 280.467 386.318 281.216C390.347 281.966 392.745 286.611 390.742 295.934Z" stroke="white" stroke-width="1.34534"/>
<path d="M439.569 291.439C427.293 315.557 405.904 309.289 404.287 298.316C402.77 288.029 413.689 282.511 420.356 283.201C426.699 283.858 426.949 290.448 421.18 290.448C414.16 290.448 410.245 285.247 409.537 281.131M439.569 291.439L430.663 294.333M439.569 291.439L442.453 300.377" stroke="white" stroke-width="1.34534"/>
<path d="M474.491 308.038L455.135 294.76M474.491 308.038L478.562 290.152M474.491 308.038L486.223 288.099M474.491 308.038L463.766 292.942M455.135 294.76L457.463 285.777M455.135 294.76L463.766 292.942M478.562 290.152L463.766 292.942M478.562 290.152L469.151 281.132M478.562 290.152L480.576 281.132M478.562 290.152L486.223 288.099M457.463 285.777L463.766 292.942M457.463 285.777L469.151 281.132M463.766 292.942L469.151 281.132M469.151 281.132H480.576M480.576 281.132L486.223 288.099" stroke="white" stroke-width="1.34534"/>
<path d="M518.353 308.929C518.353 308.929 498.904 314.47 498.904 302.329C498.904 290.187 520.026 281.822 520.026 281.822M520.026 281.822L510.43 278.979M520.026 281.822L517.187 291.435" stroke="white" stroke-width="1.34534"/>
<path d="M567.676 285.401C559.32 289.122 553.505 285.973 553.596 276.625C551.772 286.325 545.24 288.848 536.824 283.971C544.009 290.597 541.475 297.069 532.704 300.29C542.101 298.761 547.536 302.963 547.854 312.545C552.077 302.526 559.42 299.776 569.298 304.223C560.557 298.919 558.741 291.416 567.676 285.401Z" stroke="white" stroke-width="1.34534"/>
<path d="M592.936 283.807V287.476M595.384 287.812L597.252 283.318M598.721 289.8L606.067 284.174M600.159 292.888H606.067M600.159 295.609L603.465 296.863M598.721 298.453L604.965 303.253M588.344 289.219L583.447 283.807M586.753 290.778L583.049 289.219M586.141 295.089H583.049M586.753 297.474L581.978 299.339M589.385 300.043L586.753 305.852M591.711 300.685L591.13 304.17M595.384 300.043L597.252 305.852" stroke="white" stroke-width="1.34534"/>
<path d="M618.739 298.848C621.857 296.859 621.513 292.273 619.069 290.086M621.375 302.817C626.391 300.348 628.37 291.397 622.872 286.475M622.807 308.038C632.865 304.348 636.675 289.596 627.218 281.131" stroke="white" stroke-width="1.34534"/>
<path d="M651.734 295.406C652.432 294.257 654.858 292.835 656.83 294.239M665.322 292.329C664.111 291.511 661.729 291.822 660.831 293.545M653.842 299.427C656.068 304.95 665.829 302.301 665.074 296.457C665.074 296.457 662.94 297.492 659.894 298.298C656.849 299.103 653.842 299.427 653.842 299.427ZM669.231 293.956C669.862 301.196 664.049 306.336 657.477 306.423C650.904 306.51 646.425 302.707 645.443 296.021C644.461 289.335 650.045 283.329 656.253 282.79C662.461 282.251 668.599 286.716 669.231 293.956Z" stroke="white" stroke-width="1.34534"/>
<path d="M681.959 298.834L687.022 281.243L689.814 289.111L702.359 281.131C702.359 281.131 702.595 285.177 704.369 289.519C706.143 293.861 709.059 297.535 709.059 297.535L693.313 300.69L696.365 308.038L681.959 298.834Z" stroke="white" stroke-width="1.34534"/>
<path d="M748.746 286.322C748.746 286.322 752.534 274.434 747.473 272.507C741.852 270.367 743.095 287.277 743.095 287.277C743.095 287.277 730.851 273.895 728.211 280.071C725.774 285.773 737.922 292.93 737.922 292.93C737.922 292.93 720.214 294.564 721.844 301.49C723.518 308.603 740.429 299.38 740.429 299.38C740.429 299.38 734.418 313.577 740.429 316.499C747.112 319.748 748.746 299.38 748.746 299.38C748.746 299.38 762.885 312.779 766.734 306.307C770.521 299.939 753.283 292.93 753.283 292.93C753.283 292.93 766.409 288.873 764.744 283.256C762.935 277.155 748.746 286.322 748.746 286.322Z" stroke="white" stroke-width="1.34534"/>
<path d="M799.354 269.31C799.354 269.31 782.197 267.85 780.096 280.452C779.565 283.633 780.627 286.308 782.531 288.388M782.531 288.388C788.169 294.55 801.189 295.485 802.044 288.833C803.028 281.183 788.018 279.608 782.531 288.388ZM782.531 288.388C781.636 289.819 780.995 291.525 780.717 293.524C779.971 298.888 782.29 302.946 785.533 305.557M785.533 305.557C790.918 309.891 798.85 310.236 799.542 305.944C800.521 299.868 789.138 299.185 785.533 305.557ZM785.533 305.557C785.059 306.395 784.719 307.357 784.56 308.444C783.193 317.789 795.275 319.91 795.275 319.91" stroke="white" stroke-width="1.34534"/>
<path d="M814.769 293.295L824.276 281.131L818.984 308.038" stroke="white" stroke-width="1.34534"/>
<path d="M20.5076 354.576C20.5076 354.576 26.1483 339.143 32.6613 343.276C40.5552 348.284 19.1075 369.479 19.1075 369.479H34.0315" stroke="white" stroke-width="1.34534"/>
<path d="M73.7214 350.873L64.0731 348.728M72.379 355.29C68.5868 355.29 54.3829 355.29 47.0837 355.29M73.7214 359.707L59.6685 363.325" stroke="white" stroke-width="1.34534"/>
<path d="M86.4021 343.794C86.4021 343.794 103.634 336.614 110.192 343.202C118.983 352.033 93.3948 370.335 93.3948 370.335M93.3948 370.335L101.93 371.632M93.3948 370.335L94.6907 361.796" stroke="white" stroke-width="1.34534"/>
<path d="M124.71 356.493C133.35 355.527 133.977 352.708 135.091 345.868C135.413 353.82 137.509 355.108 145.697 356.042C137.444 356.493 136.026 359.165 135.091 366.183C134.011 359.436 132.802 357.04 124.71 356.493Z" stroke="white" stroke-width="1.34534"/>
<path d="M162.618 356.698C163.582 357.633 166.125 358.948 168.583 356.725M178.446 355.861C177.44 356.694 174.863 357.963 172.606 356.373M168.155 361.232C168.468 364.852 173.244 366.002 173.647 360.752M182.147 355.395C182.775 362.656 176.995 367.81 170.46 367.897C163.924 367.985 159.47 364.171 158.494 357.466C157.517 350.762 163.07 344.738 169.243 344.198C175.416 343.657 181.519 348.134 182.147 355.395Z" stroke="white" stroke-width="1.34534"/>
<path d="M199.574 356.698C200.543 357.633 203.101 358.947 205.573 356.725M215.492 355.861C214.48 356.694 211.888 357.963 209.618 356.372M206.324 363.998C207.496 363.165 210.775 361.342 214.524 360.717M218.775 355.395C219.406 362.656 213.594 367.81 207.021 367.897C200.449 367.984 195.97 364.171 194.988 357.466C194.006 350.761 199.589 344.738 205.797 344.197C212.005 343.657 218.143 348.134 218.775 355.395Z" stroke="white" stroke-width="1.34534"/>
<path d="M246.568 347.309C242.508 341.729 235.298 345.267 233.758 354.053C232.398 361.811 236.575 370.458 245.108 366.385M231.5 353.768H242.839M231.5 358.463H240.759" stroke="white" stroke-width="1.34534"/>
<path d="M265.928 338.266C266.967 337.054 270.382 335.606 271.578 337.065C273.633 339.57 266.544 349.487 263.942 346.742C260.924 343.559 274.763 338.575 278.324 342.796C282.291 347.497 268.428 362.39 263.942 357.551C258.756 351.958 279.934 344.614 284.591 352.85C289.365 361.292 272.469 372.101 259.25 375.601" stroke="white" stroke-width="1.34534"/>
<path d="M300.211 342.573H313.889L301.462 353.079C301.462 353.079 310.073 349.173 312.995 353.079C318.895 360.967 298.095 369.479 298.095 369.479" stroke="white" stroke-width="1.34534"/>
<path d="M328.943 361.496C332.093 365.195 338.376 366.946 347.107 365.132C358.735 362.717 366.228 354.108 363.14 347.036C360.757 341.578 351.524 341.737 343.399 344.26M328.943 361.496C327.897 360.268 327.197 358.825 326.866 357.227C325.77 351.921 331.134 344.629 343.399 344.26M328.943 361.496C327.389 356.476 330.102 350.569 336.683 347.036C338.687 345.96 340.994 345.006 343.399 344.26M328.943 361.496C329.461 363.172 330.456 364.75 331.942 366.106C336.348 370.13 346.769 370.972 355.981 366.327M343.399 344.26C345.957 344.183 348.816 344.407 351.98 345.014" stroke="white" stroke-width="1.34534"/>
<path d="M386.473 346.443L388.342 355.91M388.342 355.91L389.23 365.376M388.342 355.91L376.524 357.355M388.342 355.91L400.441 356.563M388.342 355.91L399.413 342.573M388.342 355.91L399.693 369.48M388.342 355.91L381.755 365.936M388.342 355.91L376.524 347.003" stroke="white" stroke-width="1.34534"/>
<path d="M418.199 348.493L419.365 355.932M419.365 355.932L425.497 352.496M419.365 355.932L425.497 360.577M419.365 355.932L416.28 363.561M419.365 355.932H413.12" stroke="white" stroke-width="1.34534"/>
<path d="M458.372 369.475C458.372 369.475 469.409 350.174 461.006 348.35C457.115 347.506 456.767 352.301 456.767 352.301C456.767 352.301 451.619 339.064 443.501 343.471C437.258 346.86 445.598 355.69 445.598 355.69C438.082 355.022 436.22 362.504 440.261 365.985C444.167 369.349 453.445 369.518 458.372 369.475ZM458.372 369.475C457.217 364.558 454.345 355.107 449.197 350.174" stroke="white" stroke-width="1.34534"/>
<path d="M485.639 380.141C485.639 380.141 470.221 360.503 480.203 357.294C483.229 356.321 486.428 360.207 486.428 360.207C486.428 360.207 480.858 340.212 488.165 340.212C491.848 340.212 493.243 346.559 493.243 346.559C493.243 346.559 500.284 328.202 507.263 332.588C513.42 336.458 504.184 350.345 504.184 350.345C504.184 350.345 508.063 349.141 509.981 350.345C515.674 353.921 498.652 363.977 498.652 363.977C498.652 363.977 505.527 363.71 507.263 366.8C512.132 375.467 485.639 380.141 485.639 380.141ZM485.639 380.141C487.363 373.499 492.961 356.493 501.563 341.612" stroke="white" stroke-width="1.34534"/>
<path d="M531.925 350.858H540.346L524.823 369.479L530.49 354.642H523.829L535.772 342.573L531.925 350.858Z" stroke="white" stroke-width="1.34534"/>
<path d="M576.44 347.034C581.986 346.457 586.573 349.411 587.221 352.775C587.891 356.247 585.518 360.434 579.374 362.414C579.279 368.006 577.236 372.17 573.646 372.864C570.055 373.558 566.53 371.075 564.067 365.342C558.084 365.944 553.513 362.639 553.072 358.619C552.632 354.6 555.271 351.577 561.086 350.033C560.624 343.967 562.794 340.029 567.151 339.188C571.508 338.346 575.504 342.348 576.44 347.034Z" stroke="white" stroke-width="1.34534"/>
<path d="M576.344 354.961C576.99 358.306 575.263 361.536 571.921 362.182C568.578 362.828 565.036 361.418 564.242 357.299C563.596 353.954 565.258 351.196 569.125 350.073C572.572 349.072 575.612 351.165 576.344 354.961Z" stroke="white" stroke-width="1.34534"/>
<path d="M615.602 350.208C613.91 344.538 602.941 343.483 602.941 349.4C602.941 354.916 615.602 354.176 615.602 361.335C615.602 368.494 599.354 365.947 600.037 356.778M611.313 342.573L606.021 369.479" stroke="white" stroke-width="1.34534"/>
<path d="M657.884 347.74C661.791 349.37 665.592 351.983 669.063 355.536C659.058 369.417 638.389 369.949 628.299 356.82C631.675 352.138 635.732 348.975 640.11 347.263M657.884 347.74C659.852 350.949 660.141 355.215 657.842 359.07C654.512 364.651 647.627 365.345 642.836 361.977C638.045 358.61 636.799 353.513 639.586 348.15C639.747 347.842 639.922 347.546 640.11 347.263M657.884 347.74C651.946 345.262 645.761 345.054 640.11 347.263M652.61 355.681L650.545 352.98L651.53 349.675L648.765 352.312L645.521 351.435L647.43 353.742L646.032 357.842L649.464 354.982L652.61 355.681Z" stroke="white" stroke-width="1.34534"/>
<path d="M684.585 361.526C687.491 368.819 690.927 358.92 690.927 358.92C690.927 358.92 694.338 369.908 697.417 362.109C705.081 359.005 694.351 355.579 694.351 355.579C694.351 355.579 703.702 352.324 696.378 349.729C693.355 343.451 690.282 352.441 690.282 352.441C690.282 352.441 687.161 342.731 684.113 349.612C677.166 352.478 687.719 355.596 687.719 355.596C687.719 355.596 678.038 359.069 684.585 361.526Z" stroke="white" stroke-width="1.34534"/>
<path d="M712.854 349.348C713.234 346.161 715.284 342.573 720.195 342.573C725.107 342.573 726.309 346.324 725.949 349.348C725.287 354.903 718.512 355.633 717.838 361.294M717.42 365.326L716.98 369.479" stroke="white" stroke-width="1.34534"/>
<path d="M753.542 342.573L738.69 362.62H755.834M749.911 369.479L752.798 349.785" stroke="white" stroke-width="1.34534"/>
<path d="M786.104 342.573L773.961 342.573L771.881 353.079C771.881 353.079 780.882 348.915 783.413 353.079C788.337 361.178 768.514 369.479 768.514 369.479" stroke="white" stroke-width="1.34534"/>
<path d="M804.516 366.453L799.839 348.699M804.516 366.453L810.896 352.818M804.516 366.453L805.531 345.6M804.516 366.453L798.788 360.364M804.516 366.453L810.896 362.734" stroke="white" stroke-width="1.34534"/>
<path d="M19.3875 393.931C10.2431 394.808 18.4544 408.494 18.4544 408.494C18.4544 408.494 0.202899 395.433 0.762743 414.087C1.32259 432.741 17.9318 418.328 17.9318 418.328C17.9318 418.328 3.63669 431.465 17.9318 434.467C32.227 437.47 25.7326 418.328 25.7326 418.328C25.7326 418.328 34.3545 434.467 42.7151 423.207C51.0757 411.947 29.9875 412.248 29.9875 412.248C29.9875 412.248 50.7414 411.647 41.6327 399.411C32.5239 387.175 25.7326 406.017 25.7326 406.017C25.7326 406.017 28.5319 393.054 19.3875 393.931Z" stroke="white" stroke-width="1.34534"/>
<path d="M85.4776 413.98C77.9631 411.341 73.3331 416.04 77.2392 419.502M94.0466 426.535C92.6045 428.277 89.8509 429.506 84.958 429.214C80.3224 428.937 77.9441 427.385 76.912 425.523M94.0466 426.535C94.7392 429.694 93.7453 435.879 84.4715 435.058C82.1857 434.855 80.4811 434.353 79.2312 433.668M94.0466 426.535C95.6739 424.57 95.4649 421.601 94.933 419.763M76.912 425.523C75.7912 423.501 76.3467 421.024 77.2392 419.502M76.912 425.523C75.8401 427.755 75.4102 431.571 79.2312 433.668M64.4845 410.267C65.2427 410.267 65.934 410.18 66.5669 410.019M79.4705 433.595C79.3909 433.619 79.3111 433.644 79.2312 433.668M66.5669 410.019C75.0905 407.842 72.887 391.457 81.1041 392.162C89.5435 392.885 82.1353 408.82 82.1353 408.82C87.0033 408.108 96.0936 409.203 96.3619 415.282C96.4459 417.186 95.8983 418.659 94.933 419.763M66.5669 410.019C66.5669 410.019 65.7007 407.156 63.3028 406.971C54.5872 406.296 56.4366 434.769 62.5288 436.318C67.038 437.465 68.3139 433.701 68.3139 433.701M68.3139 433.701C66.9705 433.206 65.848 432.499 64.939 431.596M68.3139 433.701C71.2157 434.77 75.3719 434.818 79.2312 433.668M94.933 419.763C91.0515 424.202 81.3718 423.164 77.2392 419.502" stroke="white" stroke-width="1.34534"/>
<path d="M115.306 407.647L118.143 415.861M118.143 415.861L117.938 423.914M118.143 415.861L109.052 422.071M118.143 415.861L126.994 416.422M118.143 415.861L123.064 403.239M118.143 415.861L130.309 422.432M118.143 415.861L113.324 424.475M118.143 415.861L109.497 408.208M118.143 415.861L126.447 409.93M118.143 415.861L110.659 415.179M118.143 415.861L123.064 425.437" stroke="white" stroke-width="1.34534"/>
<path d="M142.991 413.762L148.937 397.723H163.861L159.759 406.545H169.965L148.123 430.953L155.895 413.762H142.991Z" stroke="white" stroke-width="1.34534"/>
<path d="M190.728 408.423C193.638 404.136 201.021 405.496 199.709 412.171C198.397 418.846 189.235 422.713 189.235 422.713C189.235 422.713 182.937 416.99 182.653 411.35C182.37 405.71 188.503 405.254 190.728 408.423ZM190.728 408.423C190.16 409.196 189.696 410.208 189.235 411.671" stroke="white" stroke-width="1.34534"/>
<path d="M212.544 420.54L223.814 422.042M213.533 415.091L240.864 412.941M212.544 411.021L231.341 406.638" stroke="white" stroke-width="1.34534"/>
<path d="M272.51 412.881C272.51 412.881 271.405 405.366 268.991 399.619M277.596 411.694C277.172 406.711 276.192 403.544 275.014 401.612M282.13 427.19C282.282 426.216 282.448 424.924 282.591 423.436M266.95 430.921C266.95 430.921 265.235 429.553 263.211 427.738M274.679 416.82C275.64 419.004 275.916 421.637 275.916 423.436M268.788 418.026C269.797 420.079 270.24 421.983 270.708 424.12M263.211 427.738C258.646 423.645 251.592 416.342 254.045 412.16C257.211 406.759 264.905 414.28 264.905 414.28C264.905 414.28 254.611 395.402 261.97 393.323C264.992 392.469 267.309 395.615 268.991 399.619M263.211 427.738C263.211 427.738 259.73 430.246 260.766 433.235C262.719 438.873 289.731 433.007 288.04 426C287.242 422.698 282.591 423.436 282.591 423.436M282.591 423.436C283.461 414.442 283.379 398.344 275.014 401.612M275.014 401.612C272.99 398.293 270.38 398.614 268.991 399.619" stroke="white" stroke-width="1.34534"/>
<path d="M311.725 401.098C304.864 403.03 311.398 412.36 311.398 412.36C311.398 412.36 299.29 410.485 300.956 417.751C302.621 425.016 312.819 418.561 312.819 418.561C312.819 418.561 310.721 429.326 318.204 427.605C325.687 425.884 319.171 416.078 319.171 416.078C319.171 416.078 329.511 417.278 328.068 410.984C326.625 404.69 317.368 410.987 317.368 410.987C317.368 410.987 318.586 399.166 311.725 401.098Z" stroke="white" stroke-width="1.34534"/>
<path d="M340.885 407.595L342.413 419.373M343.086 424.562L342.736 421.865M346.859 404.113V418.383M346.859 424.153V421.353M352.455 409.746L351.386 419.166M350.82 424.153L351.138 421.353" stroke="white" stroke-width="1.34534"/>
<path d="M370.335 412.323C372.077 411.287 374.098 411.008 375.857 411.708C379.263 413.064 380.561 417.071 378.955 421.954C377.517 426.328 373.59 428.774 370.185 427.417C358.999 422.963 368.15 399.944 380.596 400.915" stroke="white" stroke-width="1.34534"/>
<path d="M395.312 411.342C396.335 412.075 397.638 412.3 399.102 411.964C400.182 411.717 401.133 411.126 401.805 410.315L401.909 410.306C403.001 411.868 404.727 412.486 406.764 412.019C407.222 411.914 407.656 411.748 408.056 411.529M395.312 411.342C394.554 410.8 393.951 409.978 393.55 408.9C392.756 406.767 393.812 404.433 395.578 403.311M395.312 411.342L401.423 432.096H402.361L408.056 411.529M395.578 403.311C395.513 403.169 395.452 403.022 395.396 402.869C394.453 400.334 396.121 397.516 398.49 396.786C400.859 396.055 403.621 397.289 404.474 400.071C404.773 401.047 404.742 401.989 404.465 402.826M395.578 403.311C395.911 403.1 396.268 402.932 396.644 402.817M404.465 402.826C403.953 404.37 402.602 405.555 400.948 405.933M404.465 402.826C406.797 402.197 409.456 403.437 410.29 406.156C410.99 408.438 409.884 410.53 408.056 411.529" stroke="white" stroke-width="1.34534"/>
<path d="M450.318 406.661L448.224 393.014L443.979 407.333L428.273 401.737L438.962 412.813L423.179 422.539L441.393 419.066V435.661L449.459 419.066L466.902 425.781L453.411 412.813L464.972 403.435L450.318 406.661Z" stroke="white" stroke-width="1.34534"/>
<path d="M479.583 419.475C479.583 419.475 481.592 412.906 487.203 410.881C490.882 409.553 495.926 411.821 495.926 411.821C495.926 411.821 497.384 407.629 499.501 406.551C505.546 403.474 511.132 409.068 511.132 409.068M479.583 419.475C479.583 419.475 491.825 424.73 498.566 422.496C506.975 419.71 511.132 409.068 511.132 409.068M479.583 419.475C479.583 419.475 490.567 417.68 496.728 415.648C502.888 413.616 511.132 409.068 511.132 409.068" stroke="white" stroke-width="1.34534"/>
<path d="M525.306 425.907C520.847 419.417 526.525 405.647 540.343 402.734C540.456 421.745 535.086 426.403 525.306 425.907ZM525.306 425.907C525.613 423.361 527.54 416.802 532.792 410.933" stroke="white" stroke-width="1.34534"/>
<path d="M560.665 425.734L553.043 421.883M553.043 421.883L556.88 414.233M553.043 421.883C563.131 418.829 569.814 415.665 574.092 412.748M574.092 412.748C582.506 407.013 581.622 402.233 579.045 401.126C576.357 399.972 571.826 402.817 574.092 412.748ZM574.092 412.748C574.977 416.623 576.896 421.576 580.362 427.792" stroke="white" stroke-width="1.34534"/>
<path d="M593.516 418.029L602.355 397.32C602.355 397.32 597.199 431.357 609.547 431.357C616.449 431.357 616.869 414.729 616.869 414.729M616.869 414.729L609.312 421.459M616.869 414.729L623.585 422.301" stroke="white" stroke-width="1.34534"/>
<path d="M650.679 427.792C659.508 419.125 665.704 404.494 656.47 401.273C647.235 398.053 643.565 415.966 648.143 414.871C652.721 413.775 644 402.114 638.747 405.926C633.495 409.738 636.171 421.199 650.679 427.792Z" stroke="white" stroke-width="1.34534"/>
<path d="M680.734 422.444C680.734 422.444 689.772 419.846 692.131 414.021C694.49 408.197 687.915 405.178 682.949 408.962C679.494 404.828 674.237 405.33 673.747 410.885C673.257 416.441 680.734 422.444 680.734 422.444Z" stroke="white" stroke-width="1.34534"/>
<path d="M719.721 427.792C728.55 419.125 734.746 404.494 725.512 401.273C716.277 398.053 712.607 415.966 717.185 414.871C721.763 413.775 713.042 402.114 707.79 405.926C702.537 409.738 705.213 421.199 719.721 427.792Z" stroke="white" stroke-width="1.34534"/>
<path d="M755.178 425.471H743.849C746.585 413.708 744.731 403.012 750.908 403.209C753.356 403.287 755.804 405.933 755.178 410.958M742.766 414.894L751.601 414.834" stroke="white" stroke-width="1.34534"/>
<path d="M801.996 402.533L767.959 412.795L777.522 415.718M801.996 402.533L777.522 415.718M801.996 402.533L797.837 423.337L786.078 418.972M801.996 402.533L783.931 418.175M777.522 415.718L779.701 426.144M783.931 418.175L779.701 426.144M783.931 418.175L786.078 418.972M779.701 426.144L786.078 418.972" stroke="white" stroke-width="1.34534"/>
<path d="M815.571 400.885H829.249C829.249 400.885 818.515 413.056 814.676 427.792" stroke="white" stroke-width="1.34534"/>
<path d="M12.0916 468.325C9.54744 469.98 6.85087 471.695 4.81804 473.849C0.84523 478.06 0.666481 484.235 9.01577 484.546C17.3651 484.856 20.2379 479.261 17.8138 474.813C16.4799 472.366 14.181 470.315 12.0916 468.325ZM12.0916 468.325C13.8162 467.204 15.4707 466.11 16.801 464.926C20.5398 461.598 19.2754 457.841 14.3489 457.658C9.42232 457.475 6.36716 461.13 8.73257 464.626C9.58667 465.888 10.799 467.095 12.0916 468.325Z" stroke="white" stroke-width="1.34534"/>
<path d="M52.0093 456.905C52.0093 456.905 35.8257 467.293 41.2664 472.089C44.9054 475.296 53.6499 471.974 53.6499 471.974L31.6537 487.282M52.0093 456.905L42.8999 454.927M52.0093 456.905L50.0441 466.077" stroke="white" stroke-width="1.34534"/>
<path d="M85.0681 460.847L79.5054 465.732L72.7715 461.237L74.3159 468.467L66.3304 471.789L75.7481 473.45L75.1625 481.363L80.0421 474.72L85.0681 477.406L83.4091 472.277L90.1429 470.372L83.4091 468.467L85.0681 460.847Z" stroke="white" stroke-width="1.34534"/>
<path d="M137.751 460.67C137.751 460.67 133.764 454.109 129.516 453.059C120.931 450.936 119.293 473.3 119.293 473.3C119.293 473.3 114.859 465.71 110.228 465.638C102.011 465.512 102.848 490.108 102.848 490.108M137.751 460.67L139.215 452.102M137.751 460.67L129.199 459.203" stroke="white" stroke-width="1.34534"/>
<path d="M171.683 457.651C158.45 457.651 151.898 462.486 151.898 468.45C151.898 472.144 154.54 475.404 159.615 477.352L156.908 484.558L165.539 478.836C167.404 479.105 169.454 479.25 171.683 479.25C184.578 479.25 191.467 474.415 191.467 468.45C191.467 462.717 184.562 456.239 168.821 461.485" stroke="white" stroke-width="1.34534"/>
<path d="M209.99 466.354L215.887 469.586M229.056 481.593L225.167 477.066M217.435 488.459L219.909 478.209M231.586 464.299L226.126 468.664M214.156 453.75L219.068 466.709M241.211 467.585L227.238 471.058M224.53 486.826L222.568 478.208M204.147 472.784L215.217 472.626M224.533 457.715L222.623 466.415M212.356 479.281L216.492 476.156M236.216 478.136L226.99 474.68M226.126 468.664C226.643 469.342 227.031 470.147 227.238 471.058M226.126 468.664C225.246 467.511 223.994 466.726 222.623 466.415M227.238 471.058C227.306 471.353 227.354 471.66 227.382 471.977C227.468 472.964 227.319 473.875 226.99 474.68M226.99 474.68C226.237 476.526 224.541 477.817 222.568 478.208M222.568 478.208C222.185 478.284 221.792 478.325 221.393 478.331C220.871 478.338 220.376 478.296 219.909 478.209M219.909 478.209C218.474 477.941 217.309 477.238 216.492 476.156M216.492 476.156C215.866 475.327 215.444 474.277 215.261 473.03C215.241 472.895 215.226 472.76 215.217 472.626M215.217 472.626C215.14 471.54 215.396 470.499 215.887 469.586M215.887 469.586C216.578 468.298 217.732 467.263 219.068 466.709M219.068 466.709C219.611 466.483 220.185 466.337 220.769 466.287C221.395 466.232 222.02 466.278 222.623 466.415" stroke="white" stroke-width="1.34534"/>
<path d="M284.814 489.198C281.076 490.035 277.264 482.923 277.264 482.923C277.264 482.923 275.112 487.106 272.768 486.931C270.533 486.765 268.89 482.69 268.89 482.69C268.89 482.69 258.614 489.931 255.035 485.296C249.969 478.734 263.382 472.118 263.382 472.118C263.382 472.118 254.586 469.079 255.035 465.198C255.744 459.074 268.902 463.93 268.902 463.93C268.902 463.93 267.312 456.064 270.702 454.32C274.652 452.288 279.437 461.609 279.437 461.609C279.437 461.609 293.195 448.81 298.891 454.32C304.4 459.649 292.046 471.693 292.046 471.693C292.046 471.693 300.054 475.123 298.891 478.799C297.657 482.697 288.461 479.453 288.461 479.453C288.461 479.453 288.773 488.312 284.814 489.198Z" stroke="white" stroke-width="1.34534"/>
<path d="M325.699 474.547C325.699 478.312 322.853 481.363 319.342 481.363C315.832 481.363 312.986 478.312 312.986 474.547C312.986 469.418 319.342 460.847 319.342 460.847C319.342 460.847 325.699 469.315 325.699 474.547Z" stroke="white" stroke-width="1.34534"/>
<path d="M354.347 468.417L351.974 457.654L350.003 468.417L338.378 471.856L350.003 473.717L352.657 484.561L354.347 473.717L365.006 470.263L354.347 468.417Z" stroke="white" stroke-width="1.34534"/>
<path d="M405.736 457.654L384.701 462.156L390.07 466.11L377.69 475.994C377.69 475.994 380.903 476.956 383.606 479.069C386.308 481.183 388.134 484.56 388.134 484.56L397.629 471.931L401.902 477.641L405.736 457.654Z" stroke="white" stroke-width="1.34534"/>
<path d="M432.249 478.975C427.485 477.015 422.127 487.101 419.47 483.202C416.261 478.495 429.987 478.949 430.167 473.252C430.359 467.152 415.824 467.909 418.589 462.76C421.314 457.685 427.926 469.684 432.816 466.635C438.34 463.191 427.042 451.286 433.422 449.995C439.901 448.685 433.102 463.589 439.312 465.839C445.291 468.005 449.789 453.456 453.806 458.381C457.356 462.734 441.989 465.558 442.748 472.518C443.49 479.324 459.28 477.905 456.043 483.945C452.795 490.005 444.684 474.871 439.161 478.971C434.813 482.199 441.922 491.558 436.552 492.249C430.836 492.985 437.574 481.167 432.249 478.975Z" stroke="white" stroke-width="1.34534"/>
<path d="M480.132 470.945L480.707 463.652M480.132 470.945L487.179 467.298M480.132 470.945L487.79 475.71M480.132 470.945L480.42 478.526M480.132 470.945L473.481 474.663M480.132 470.945L473.84 467.01M480.707 463.652L484.842 460.042M480.707 463.652L476.717 460.042M487.179 467.298L487.862 462.858M487.179 467.298L491.673 468.49M487.79 475.71L492.105 473.58M487.79 475.71L488.437 479.79M480.42 478.526L483.584 482.173M480.42 478.526L476.717 481.739M473.481 474.663V479.248M473.481 474.663L469.167 473.688M473.84 467.01L473.481 463.074M473.84 467.01L469.167 468.49" stroke="white" stroke-width="1.34534"/>
<path d="M509.962 469.864L518.054 478.284C520.544 473.935 527.194 463.719 533.866 457.654M504.784 462.936L505.962 484.561L527.944 483.1L526.425 461.879L504.784 462.936Z" stroke="white" stroke-width="1.34534"/>
<path d="M562.12 484.56C552.497 484.56 547.69 480.551 546.621 473.687C546.22 470.22 547.55 467.002 549.816 464.571L548.127 457.654L555.656 460.813C556.676 460.47 557.735 460.245 558.808 460.157C561.023 459.976 563.239 460.259 565.241 460.984L572.04 457.654L570.494 464.571C571.874 466.219 572.796 468.308 573.028 470.813C573.649 477.525 568.063 482.641 558.808 481.533" stroke="white" stroke-width="1.34534"/>
<path d="M625.22 448.573C620.672 447.885 619.876 457.768 615.328 457.077C612.539 456.653 612.401 452.249 609.608 452.655C606.945 453.042 607.516 456.502 605.318 458.058C599.278 462.333 591.752 446.372 587.025 453.145C580.158 462.983 603.582 463.568 599.602 471.177C597.43 475.331 588.805 473.159 589.591 477.781C590.772 484.733 602.46 475.301 606.897 480.517C609.865 484.006 605.65 490.068 609.857 491.872C614.757 493.974 614.72 484.287 619.711 482.413C628.612 479.071 634.888 498.791 641.921 492.386C648.971 485.967 630.466 478.157 633.972 469.284C635.673 464.98 644.075 464.996 642.375 460.692C640.572 456.129 633.158 462.94 629.031 460.293C624.929 457.663 630.036 449.302 625.22 448.573Z" stroke="white" stroke-width="1.34534"/>
<path d="M656.216 483.632L659.394 460.602L663.185 492.092V450.117L669.287 485.692L670.767 463.819L675.425 479.257L678.025 467.29L684.452 475.461L689.109 467.29L695.5 471.665" stroke="white" stroke-width="1.34534"/>
<path d="M732.768 457.654C716.337 457.654 708.202 463.677 708.202 471.107C708.202 478.537 716.756 484.561 732.768 484.561C748.779 484.561 757.333 478.537 757.333 471.107C757.333 463.965 748.562 456.107 728.786 462.026" stroke="white" stroke-width="1.34534"/>
<path d="M769.992 484.51C783.892 485.82 790.455 461.446 781.691 458.085C777.891 456.627 773.498 458.987 771.88 463.355C770.073 468.232 771.207 472.313 775.008 473.771C776.477 474.334 778.112 474.348 779.659 473.902" stroke="white" stroke-width="1.34534"/>
<path d="M810.814 470.098C805.819 472.519 802.501 483.15 807.866 484.455C810.62 485.125 811.946 482.397 814.765 482.161C817.628 481.92 819.247 484.038 822.035 483.319C828.461 481.662 816.814 467.188 810.814 470.098Z" stroke="white" stroke-width="1.34534"/>
<path d="M805.84 458.617C807.66 458.055 808.989 459.107 809.87 460.763C811.067 463.014 811.147 466.333 809.286 467.499C807.426 468.664 805.193 466.988 804.191 464.368C803.189 461.747 804.019 459.178 805.84 458.617Z" stroke="white" stroke-width="1.34534"/>
<path d="M816.268 467.001C814.432 466.495 813.874 464.893 814.018 463.022C814.215 460.479 815.926 457.637 818.12 457.654C820.315 457.671 821.3 460.286 820.741 463.036C820.182 465.786 818.105 467.507 816.268 467.001Z" stroke="white" stroke-width="1.34534"/>
<path d="M803.894 473.383C803.104 474.415 801.951 474.357 800.808 473.785C799.256 473.009 797.903 471.196 798.477 469.812C799.051 468.428 800.952 468.475 802.543 469.535C804.133 470.594 804.685 472.35 803.894 473.383Z" stroke="white" stroke-width="1.34534"/>
<path d="M827.107 466.101C828.149 467.088 827.954 468.352 827.197 469.545C826.167 471.166 824.025 472.449 822.572 471.659C821.119 470.869 821.388 468.78 822.732 467.15C824.075 465.52 826.065 465.113 827.107 466.101Z" stroke="white" stroke-width="1.34534"/>
<path d="M29.3765 555.146C29.3765 555.146 18.1828 538.848 25.243 534.904C32.3032 530.961 32.2194 554.186 39.4952 550.658C48.7526 546.169 29.9711 531.303 38.1604 527.222C45.7816 523.424 44.8856 547.577 52.757 544.011C63.0479 539.35 42.294 523.726 51.7667 519.582C57.3952 517.12 58.7658 540.804 66.1911 537.062C74.1568 533.048 60.2061 514.921 60.2061 514.921" stroke="white" stroke-width="1.34534"/>
<path d="M83.8146 526.659L93.8395 533.312L83.8146 543.409M81.3278 531.12L85.5631 534.173L81.3278 538.204" stroke="white" stroke-width="1.34534"/>
<path d="M116.824 526.692L106.522 534.41L116.824 543.375M118.9 530.746L114.986 534.41L118.9 537.801" stroke="white" stroke-width="1.34534"/>
<path d="M166.505 524.6C166.505 524.6 162.518 518.039 158.27 516.989C149.685 514.866 148.047 537.23 148.047 537.23C148.047 537.23 143.613 529.639 138.982 529.568C130.765 529.442 131.602 554.038 131.602 554.038M166.505 524.6L167.969 516.032M166.505 524.6L157.953 523.133" stroke="white" stroke-width="1.34534"/>
<path d="M186.358 536.697L182.148 537.619L180.652 531.577L196.415 527.409M186.358 536.697L188.894 552.624L201.22 550.516M186.358 536.697L198.048 534.137M209.739 531.577L213.161 530.828L211.617 523.428L196.415 527.409M209.739 531.577L213.545 548.409L201.22 550.516M209.739 531.577L198.048 534.137M196.415 527.409L198.048 534.137M196.415 527.409C195.526 522.444 191.737 516.824 188.416 519.868C184.594 523.372 191.176 528.794 196.415 527.409ZM196.415 527.409C195.51 522.351 197.94 515.936 201.747 517.761C206.145 519.868 201.397 526.091 196.415 527.409ZM198.048 534.137L201.22 550.516" stroke="white" stroke-width="1.34534"/>
<path d="M227.079 535.439L248.701 515.425C250.692 515.425 252.799 516.158 254.708 517.34M227.079 535.439L226.651 545.04M227.079 535.439C229.791 535.231 232.863 535.994 235.742 537.413M245.88 548.184L261.135 525.56C260.817 524.097 260.072 522.623 259.044 521.269M245.88 548.184L236.052 551.413M245.88 548.184C245.255 546.029 243.943 543.963 242.218 542.144M226.651 545.04L226.224 554.641L236.052 551.413M226.651 545.04C226.651 545.04 229.487 545.546 231.864 547.157C234.242 548.769 236.052 551.413 236.052 551.413M242.218 542.144L259.044 521.269M242.218 542.144C240.407 540.234 238.142 538.596 235.742 537.413M259.044 521.269C257.887 519.743 256.373 518.371 254.708 517.34M235.742 537.413L254.708 517.34" stroke="white" stroke-width="1.34534"/>
<path d="M273.86 530.937C274.228 533.462 275.908 534.898 278.373 534.865C279.265 535.966 280.881 538.714 278.373 543.667C283.222 540.227 287.493 525.338 277.914 525.94C275.581 526.086 273.492 528.412 273.86 530.937Z" stroke="white" stroke-width="1.34534"/>
<path d="M286.187 530.272C286.178 532.824 287.627 534.494 290.069 534.828C290.789 536.05 291.425 539.624 288.212 544.149C293.516 541.469 300.496 526.765 290.934 525.933C288.606 525.731 286.196 527.72 286.187 530.272Z" stroke="white" stroke-width="1.34534"/>
<path d="M329.373 538.7C329.017 536.263 327.393 534.877 325.012 534.909C324.149 533.846 323.03 531.334 325.455 526.554C320.768 529.873 316.197 544.104 325.455 543.523C327.709 543.382 329.729 541.137 329.373 538.7Z" stroke="white" stroke-width="1.34534"/>
<path d="M317.513 539.947C317.522 537.484 316.122 535.872 313.761 535.549C313.066 534.37 312.52 530.286 315.626 525.919C310.499 528.505 303.683 543.332 312.925 544.135C315.175 544.33 317.504 542.411 317.513 539.947Z" stroke="white" stroke-width="1.34534"/>
<path d="M343.041 531.01L350.158 528.887M343.878 535.257L356.689 534.139M343.878 539.251L351.246 541.095M342.092 543.386L346.753 545.258M342.092 526.764L345.999 524.809" stroke="white" stroke-width="1.34534"/>
<path d="M371.405 532.038C372.427 532.771 373.731 532.996 375.195 532.66C376.275 532.413 377.226 531.822 377.898 531.011L378.002 531.002C379.094 532.564 380.82 533.182 382.857 532.715C383.314 532.61 383.749 532.444 384.148 532.225M371.405 532.038C370.647 531.496 370.043 530.674 369.642 529.596C368.849 527.463 369.904 525.129 371.671 524.007M371.405 532.038L377.515 552.792H378.454L384.148 532.225M371.671 524.007C371.606 523.865 371.545 523.718 371.488 523.565C370.545 521.03 372.213 518.212 374.582 517.482C376.952 516.751 379.713 517.986 380.566 520.767C380.866 521.743 380.835 522.685 380.557 523.522M371.671 524.007C372.003 523.796 372.361 523.628 372.736 523.513M380.557 523.522C380.045 525.066 378.695 526.251 377.041 526.629M380.557 523.522C382.89 522.893 385.548 524.133 386.382 526.852C387.082 529.134 385.976 531.226 384.148 532.225" stroke="white" stroke-width="1.34534"/>
<path d="M420.448 515.493L407.632 527.329L420.448 520.592L408.152 531.945L428.434 519.699L399.274 543.93L435.195 521.597L407.632 543.26L428.434 532.838L411.533 547.317L427.208 538.347L417.105 554.575" stroke="white" stroke-width="1.34534"/>
<path d="M472.252 532.203C470.623 530.065 467.142 529.414 464.929 531.313C464.735 531.48 464.555 531.651 464.389 531.827M472.252 532.203C473.882 534.341 473.669 537.607 471.173 539.506C468.676 541.405 465.459 540.471 463.911 538.096C462.498 535.929 462.668 533.651 464.389 531.827M472.252 532.203L481.571 529.383M458.895 532.101C457.818 530.957 456.264 530.357 454.699 530.493C453.093 530.632 451.584 531.617 450.723 533.005M458.895 532.101C459.664 532.916 460.189 534.008 460.302 535.308C460.575 538.43 458.065 540.646 455.227 540.684C452.389 540.721 450.455 539.081 450.031 536.198C449.861 535.042 450.147 533.933 450.723 533.005M458.895 532.101L464.389 531.827M450.723 533.005L447.871 532.612" stroke="white" stroke-width="1.34534"/>
<path d="M503.881 539.577L513.51 527.826H508.967M503.881 539.577V548.487M503.881 539.577L501.965 537.239M503.881 548.487H509.729M503.881 548.487H497.979M507.417 527.826H494.253L501.965 537.239M507.417 527.826L501.965 537.239M507.417 527.826H508.967M508.967 527.826L512.503 521.58" stroke="white" stroke-width="1.34534"/>
<path d="M550.05 518.604L547.561 505.675M554.511 515.177L556.119 508.687M554.511 547.628L557.935 564.399M550.05 552.768L548.961 559.778M564.782 527.208L574.689 522.031M537.394 527.208L526.19 520.161M532.518 529.819H527.227M539.884 542.747L530.288 550.795M565.871 540.174L573.496 544.049M551.517 527.208L559.539 520.161L557.146 531.154L566.857 533.902L557.146 536.65L559.539 544.049L552.291 540.174L545.254 549.757L546.099 538.342L532.518 535.946L544.033 531.154L541.806 520.725L551.517 527.208Z" stroke="white" stroke-width="1.34534"/>
<path d="M597.022 512.298L587.372 512.486M587.372 512.486L587.56 522.137M587.372 512.486L611.289 534.25L600.519 535.103L614.884 557.77" stroke="white" stroke-width="1.34534"/>
<path d="M641.4 542.906C636.636 540.945 631.279 551.031 628.621 547.132C625.412 542.425 639.138 542.879 639.318 537.182C639.51 531.082 624.975 531.84 627.74 526.69C630.465 521.616 637.077 533.614 641.967 530.565C647.491 527.121 636.193 515.216 642.573 513.925C649.052 512.615 642.253 527.519 648.463 529.769C654.442 531.935 658.94 517.386 662.957 522.311C666.507 526.664 651.14 529.488 651.899 536.448C652.641 543.255 668.431 541.835 665.194 547.875C661.946 553.935 653.835 538.801 648.312 542.901C643.964 546.129 651.073 555.488 645.703 556.179C639.987 556.915 646.725 545.098 641.4 542.906Z" stroke="white" stroke-width="1.34534"/>
<path d="M684.788 555.146C684.788 555.146 673.594 538.848 680.654 534.904C687.715 530.961 687.631 554.186 694.907 550.658C704.164 546.169 685.382 531.303 693.572 527.222C701.193 523.424 700.297 547.577 708.168 544.011C718.459 539.35 697.705 523.726 707.178 519.582C712.806 517.12 714.177 540.804 721.602 537.062C729.568 533.048 715.617 514.921 715.617 514.921" stroke="white" stroke-width="1.34534"/>
<path d="M742.448 536.697L738.238 537.619L736.741 531.577L752.505 527.409M742.448 536.697L744.984 552.624L757.309 550.516M742.448 536.697L754.138 534.137M765.828 531.577L769.251 530.828L767.707 523.428L752.505 527.409M765.828 531.577L769.635 548.409L757.309 550.516M765.828 531.577L754.138 534.137M752.505 527.409L754.138 534.137M752.505 527.409C751.616 522.444 747.827 516.824 744.506 519.868C740.684 523.372 747.266 528.794 752.505 527.409ZM752.505 527.409C751.599 522.351 754.03 515.936 757.837 517.761C762.235 519.868 757.486 526.091 752.505 527.409ZM754.138 534.137L757.309 550.516" stroke="white" stroke-width="1.34534"/>
<path d="M796.728 548.488C805.557 539.821 811.753 525.19 802.519 521.969C793.284 518.749 789.614 536.662 794.192 535.567C798.77 534.471 790.049 522.81 784.796 526.622C779.544 530.434 782.22 541.895 796.728 548.488Z" stroke="white" stroke-width="1.34534"/>
</g>
<defs>
<clipPath id="clip0_990_5959">
<rect width="830" height="535.465" fill="white"/>
</clipPath>
</defs>
</svg>
