<svg width="72" height="72" viewBox="0 0 72 72" fill="none" xmlns="http://www.w3.org/2000/svg">
<mask id="mask0_7573_457431" style="mask-type:alpha" maskUnits="userSpaceOnUse" x="0" y="0" width="72" height="72">
<rect width="72" height="72" rx="36" fill="#D9D9D9"/>
</mask>
<g mask="url(#mask0_7573_457431)">
<rect width="72" height="72" fill="#D9D9D9"/>
<path d="M35.9851 17.1172C28.0591 17.1172 21.6339 23.5425 21.6339 31.4685C21.6339 31.4685 30.949 26.9239 36.733 25.0414C38.1876 24.5679 38.9247 23.9209 39.2223 25.0414C39.4376 25.8518 39.6909 26.8057 40.4916 27.5692C43.4842 30.423 50.3364 31.4685 50.3364 31.4685C50.3364 23.5425 43.9111 17.1172 35.9851 17.1172Z" fill="#888686"/>
<path d="M35.9851 45.8197C43.9111 45.8197 50.3364 39.3944 50.3364 31.4685C50.3364 31.4685 43.4842 30.423 40.4916 27.5692C39.6909 26.8057 39.4376 25.8518 39.2223 25.0414C38.9247 23.9209 38.1876 24.5679 36.733 25.0414C30.949 26.9239 21.6339 31.4685 21.6339 31.4685C21.6339 39.3944 28.0591 45.8197 35.9851 45.8197Z" fill="#B1B1B1"/>
<path d="M2.20312 48.4027H18.4181V72.0023H2.20312V48.4027Z" fill="#AEAEAE"/>
<path d="M53.5509 48.4027H69.7659V72.0023H53.5509V48.4027Z" fill="#AEAEAE"/>
<path d="M53.5762 48.4076H18.4434L36.0118 58.7572L53.5762 48.4096V72.0023H18.4434V48.4027H53.5762V48.4076Z" fill="#888686"/>
</g>
</svg>
